<?xml version="1.0" standalone="no"?>
<!DOCTYPE svg PUBLIC "-//W3C//DTD SVG 20010904//EN"
 "http://www.w3.org/TR/2001/REC-SVG-20010904/DTD/svg10.dtd">
<svg version="1.0" xmlns="http://www.w3.org/2000/svg"
 width="640.000000pt" height="640.000000pt" viewBox="0 0 640.000000 640.000000"
 preserveAspectRatio="xMidYMid meet">
<metadata>
Created by potrace 1.11, written by Peter Selinger 2001-2013
</metadata>
<g transform="translate(0.000000,640.000000) scale(0.100000,-0.100000)"
fill="#000000" stroke="none">
<path d="M1502 5905 c-7 -19 -15 -42 -16 -52 -3 -15 -18 -71 -32 -118 -2 -5
-5 -19 -8 -30 -2 -11 -5 -21 -6 -22 -2 -2 -3 -6 -4 -10 -15 -67 -30 -114 -37
-118 -4 -3 -6 -12 -3 -19 3 -8 -2 -29 -11 -46 -9 -18 -14 -34 -11 -38 3 -3 1
-11 -5 -19 -6 -7 -9 -13 -6 -13 3 0 -1 -21 -9 -47 -18 -58 -116 -414 -118
-428 -1 -5 -4 -14 -7 -20 -5 -8 -22 -70 -35 -127 -1 -5 -3 -10 -4 -13 -1 -3
-4 -9 -5 -15 -1 -5 -4 -12 -5 -15 -1 -3 -4 -9 -5 -15 -1 -5 -4 -11 -5 -12 -1
-2 -4 -14 -5 -28 -2 -14 -14 -56 -25 -95 -24 -77 -38 -128 -45 -162 -3 -12 -9
-33 -14 -45 -5 -13 -9 -25 -9 -28 0 -5 -18 -72 -47 -175 -8 -27 -31 -108 -50
-180 -20 -71 -40 -143 -46 -160 -8 -26 -54 -193 -65 -235 -5 -23 -42 -151 -53
-188 -5 -18 -10 -35 -10 -37 0 -3 -7 -31 -16 -63 -10 -31 -19 -65 -20 -75 -2
-9 -6 -21 -9 -25 -3 -5 -7 -19 -10 -33 -12 -54 -39 -155 -46 -169 -9 -18 -23
-78 -19 -82 1 -2 -3 -12 -9 -24 -6 -11 -13 -32 -16 -45 -2 -13 -16 -67 -31
-119 -15 -52 -29 -102 -31 -110 -2 -8 -10 -40 -19 -70 -22 -78 -22 -77 -45
-160 -12 -41 -23 -82 -25 -90 -2 -8 -4 -15 -5 -15 -1 0 -3 -7 -5 -15 -2 -8
-12 -48 -24 -89 -11 -41 -18 -77 -16 -81 5 -9 480 -10 492 -1 9 6 96 314 96
338 0 7 5 13 10 13 6 0 8 3 4 6 -3 3 1 24 9 46 7 21 13 42 12 46 -1 4 1 14 5
22 8 21 62 216 72 260 2 8 8 26 13 40 5 14 10 28 11 33 1 10 12 60 16 72 1 6
3 13 4 18 0 4 7 23 15 42 8 19 13 35 11 35 -2 0 5 25 15 55 10 30 17 55 15 55
-2 0 2 18 10 40 8 22 14 42 15 45 0 3 0 6 1 8 5 17 11 46 12 60 1 9 6 17 11
17 5 0 7 3 3 6 -3 3 1 23 8 45 8 21 12 39 8 39 -3 0 0 7 7 15 7 8 9 15 5 15
-4 0 -2 6 4 13 6 8 9 16 6 19 -3 3 2 21 10 41 8 21 12 37 9 37 -4 0 -1 7 6 15
7 8 10 15 7 15 -3 0 2 21 10 48 8 26 16 54 18 62 2 8 19 71 38 140 19 69 38
139 43 155 8 33 8 33 16 55 3 8 11 33 16 55 6 22 27 99 47 170 20 72 38 137
40 145 2 8 12 45 23 82 11 37 17 70 14 73 -3 3 -1 5 5 5 5 0 10 6 10 13 1 13
11 55 38 152 10 33 18 65 20 70 1 6 4 17 8 25 5 15 54 190 62 223 2 10 7 27
10 37 3 10 8 27 10 37 2 10 11 43 20 73 9 30 18 63 20 73 7 24 13 44 31 107 8
30 17 62 19 70 2 8 4 16 5 18 2 1 3 5 4 10 15 67 30 119 36 127 5 6 8 13 9 18
1 20 14 83 20 92 6 10 6 13 15 56 3 14 12 45 20 68 l15 41 -252 0 -253 0 -12
-35z"/>
<path d="M5436 5878 c-9 -35 -19 -70 -21 -78 -2 -8 -4 -15 -5 -15 -1 0 -3 -9
-5 -20 -2 -11 -25 -92 -50 -180 -26 -88 -48 -167 -50 -175 -1 -8 -10 -40 -18
-70 -37 -132 -49 -176 -52 -190 -2 -8 -15 -52 -28 -97 -14 -46 -22 -83 -20
-83 3 0 0 -7 -7 -15 -7 -8 -10 -15 -7 -15 4 0 0 -19 -9 -41 -8 -23 -16 -51
-19 -63 -4 -21 -9 -38 -40 -151 -10 -33 -19 -68 -20 -77 -2 -9 -9 -26 -15 -37
-6 -12 -8 -21 -6 -21 3 0 1 -11 -4 -25 -5 -14 -12 -38 -15 -53 -8 -38 -13 -57
-15 -57 -1 0 -3 -7 -5 -15 -2 -8 -18 -64 -35 -125 -18 -60 -33 -117 -35 -125
-2 -8 -4 -15 -5 -15 -1 0 -3 -7 -5 -15 -3 -13 -33 -126 -82 -300 -8 -30 -16
-59 -18 -65 -1 -5 -5 -17 -8 -25 -5 -13 -31 -106 -41 -150 -2 -8 -10 -35 -17
-60 -7 -25 -13 -49 -15 -55 -14 -62 -30 -111 -37 -116 -5 -3 -8 -8 -6 -10 1
-2 -2 -22 -6 -44 -10 -49 -8 -38 -29 -110 -10 -33 -20 -69 -22 -81 -2 -12 -10
-40 -19 -63 -8 -23 -14 -43 -14 -46 -1 -12 -14 -63 -27 -102 -7 -24 -16 -57
-19 -75 -3 -17 -8 -35 -11 -40 -3 -4 -7 -16 -9 -25 -3 -10 -9 -36 -15 -58 -6
-22 -13 -47 -15 -55 -2 -8 -4 -15 -5 -15 -1 0 -3 -7 -5 -15 -2 -8 -13 -49 -25
-90 -12 -41 -23 -82 -25 -90 -2 -8 -11 -42 -21 -75 -10 -33 -19 -65 -20 -71
-2 -10 -21 -79 -40 -145 -4 -14 21 -16 248 -15 l251 1 34 120 c19 66 36 127
38 135 3 12 40 143 70 250 3 8 9 31 14 50 5 19 24 85 41 145 17 61 33 117 34
125 2 8 10 35 17 60 15 52 13 46 23 90 5 19 11 40 14 45 6 10 9 20 16 60 2 11
6 27 10 35 5 14 52 174 60 210 2 8 11 42 20 75 9 33 28 103 42 155 14 52 28
98 30 102 3 4 7 16 9 26 1 9 8 37 15 62 7 25 13 50 15 55 1 6 5 17 8 25 6 15
54 189 62 224 2 10 11 43 20 72 9 30 16 56 16 59 0 3 6 23 14 45 8 22 14 41
14 43 -1 1 4 22 11 47 7 25 14 52 16 60 2 8 10 36 18 62 8 25 12 49 9 52 -4 3
-1 6 5 6 7 0 11 3 11 8 -4 18 15 92 23 92 5 0 7 3 4 8 -2 4 9 55 25 112 17 58
39 138 50 179 11 41 24 82 28 90 5 9 7 24 6 34 -2 9 2 17 8 17 5 0 8 2 5 5 -3
3 3 36 14 73 11 37 31 110 44 162 14 52 30 103 36 115 6 11 10 20 8 20 -5 0
39 174 51 200 5 11 10 29 12 40 1 11 6 26 10 33 5 6 6 12 3 12 -3 0 -1 12 5
28 6 15 12 34 14 42 2 8 6 23 10 33 7 16 -9 17 -248 17 l-255 0 -16 -62z"/>
<path d="M2025 4248 c-5 -15 -27 -98 -31 -113 -1 -5 -7 -30 -15 -55 -7 -25
-14 -51 -15 -58 -1 -8 -6 -21 -10 -30 -4 -9 -8 -24 -9 -32 -1 -8 -4 -22 -8
-30 -5 -12 -39 -136 -52 -190 -2 -8 -11 -40 -20 -70 -18 -62 -50 -176 -90
-325 -14 -54 -31 -107 -36 -117 -5 -10 -7 -18 -5 -18 3 0 1 -12 -5 -27 -6 -16
-12 -35 -13 -43 -1 -8 -11 -42 -21 -75 -10 -33 -20 -68 -21 -77 -1 -10 -2 -19
-4 -20 -1 -2 -3 -10 -5 -18 -2 -8 -18 -64 -35 -125 -18 -60 -33 -117 -36 -125
-2 -8 -10 -40 -19 -70 -29 -99 -36 -125 -37 -137 -1 -7 -5 -13 -10 -13 -5 0
-7 -4 -4 -9 3 -4 -4 -39 -15 -77 -11 -38 -22 -77 -24 -88 -3 -10 -12 -44 -21
-75 -9 -31 -17 -60 -18 -66 -1 -5 -5 -15 -9 -22 -12 -19 17 -21 263 -20 l235
2 13 40 c16 49 38 128 92 330 11 44 24 87 27 95 3 8 7 20 8 25 15 59 37 143
42 155 3 8 7 20 8 25 2 6 10 37 20 70 9 33 29 107 45 165 16 58 41 146 55 195
14 50 27 99 29 110 2 11 6 27 9 35 12 32 31 96 32 110 1 8 5 22 8 30 7 18 39
130 41 145 1 6 5 16 9 23 5 6 6 12 3 12 -3 0 1 18 9 40 8 22 14 42 14 45 0 3
7 29 15 58 66 234 97 347 101 363 2 10 7 29 11 42 l6 22 -251 0 c-192 0 -253
-3 -256 -12z"/>
<path d="M3011 4231 c-7 -16 -14 -35 -15 -42 -1 -8 -8 -34 -15 -59 -7 -25 -15
-54 -18 -65 -8 -38 -11 -50 -13 -50 -1 0 -3 -7 -5 -15 -14 -56 -37 -137 -42
-150 -3 -8 -7 -19 -9 -25 -4 -19 -23 -90 -38 -145 -8 -30 -25 -92 -39 -137
-14 -46 -22 -83 -20 -83 3 0 0 -7 -7 -15 -7 -8 -10 -15 -7 -15 4 0 0 -19 -9
-42 -8 -22 -12 -43 -9 -46 3 -3 1 -10 -4 -16 -10 -12 -42 -124 -57 -195 -3
-14 -7 -28 -10 -33 -3 -4 -7 -16 -9 -25 -2 -10 -13 -52 -25 -93 -12 -41 -23
-86 -26 -99 -3 -14 -7 -28 -10 -33 -3 -4 -7 -16 -9 -25 -2 -10 -22 -85 -45
-168 -23 -82 -43 -154 -44 -160 -2 -5 -8 -28 -14 -50 -6 -22 -12 -43 -12 -47
0 -4 -7 -26 -15 -48 -8 -22 -14 -44 -15 -48 0 -4 -5 -23 -11 -42 -6 -19 -13
-48 -16 -65 -2 -16 -10 -36 -15 -42 -6 -7 -8 -13 -4 -13 3 0 1 -12 -5 -27 -6
-16 -13 -39 -15 -53 -3 -14 -9 -36 -14 -50 -5 -14 -11 -34 -13 -45 -2 -11 -7
-27 -10 -35 -5 -13 -14 -49 -22 -85 -2 -5 -8 -30 -16 -55 -7 -25 -14 -49 -15
-55 -2 -5 -10 -35 -19 -65 -15 -52 -29 -99 -41 -145 -9 -33 -10 -38 -24 -85
-7 -25 -14 -49 -15 -55 -1 -5 -3 -12 -5 -15 -1 -3 -4 -14 -6 -25 -2 -11 -14
-57 -27 -103 -14 -45 -22 -82 -20 -82 3 0 0 -7 -7 -15 -7 -8 -10 -15 -6 -15 3
0 1 -12 -5 -27 -6 -16 -12 -35 -14 -43 -2 -8 -22 -80 -45 -160 -23 -80 -43
-156 -46 -169 -3 -13 -9 -32 -15 -43 -5 -10 -7 -18 -5 -18 3 0 1 -12 -5 -27
-6 -16 -13 -39 -15 -53 -3 -14 -12 -44 -20 -68 -26 -78 -43 -73 236 -70 157 2
250 7 251 13 0 6 7 25 14 43 8 17 12 32 9 32 -2 0 2 15 9 33 8 17 15 35 15 40
5 26 17 71 34 132 11 39 21 75 23 80 8 38 18 74 26 95 5 14 12 37 14 51 3 13
13 50 23 82 11 32 14 54 8 50 -8 -5 -8 -3 0 8 8 11 30 76 40 119 0 3 3 12 7
20 5 13 19 63 33 120 2 8 8 33 14 55 6 22 13 47 15 55 2 8 4 15 5 15 1 0 3 7
5 15 2 8 8 30 14 48 5 17 8 32 5 32 -3 0 0 8 5 18 6 11 12 30 15 43 3 13 14
58 26 99 12 41 23 83 25 92 2 9 9 26 15 38 6 12 9 24 6 27 -3 3 1 22 9 42 8
20 17 47 19 61 3 14 15 57 26 95 11 39 30 104 41 145 12 41 30 107 40 145 11
39 22 79 25 90 7 27 9 34 22 80 6 22 11 42 11 45 0 3 5 19 11 35 7 17 13 37
15 46 2 8 20 74 40 145 20 71 38 140 41 153 3 13 9 32 15 43 5 10 7 18 5 18
-3 0 1 18 9 40 8 22 14 42 15 45 0 5 1 9 5 23 1 4 5 21 10 37 4 17 19 68 32
115 13 47 27 96 30 110 7 33 9 42 15 60 7 18 25 80 77 270 22 80 52 186 66
235 14 50 28 99 30 110 2 11 8 34 15 50 6 17 11 31 11 33 -1 1 -1 3 0 5 1 4 8
32 13 55 l5 22 -248 0 -249 0 -11 -29z"/>
<path d="M3996 4252 c-3 -5 -10 -29 -16 -53 -13 -52 -12 -50 -44 -164 -32
-110 -46 -162 -48 -172 -1 -5 -8 -28 -15 -53 -15 -47 -42 -144 -48 -170 -2 -8
-8 -27 -13 -41 -6 -15 -8 -30 -5 -33 4 -3 1 -6 -6 -6 -7 0 -10 -4 -6 -9 3 -5
-1 -29 -9 -53 -7 -24 -17 -56 -21 -73 -5 -16 -10 -37 -12 -45 -2 -8 -5 -21 -5
-27 -1 -7 -4 -13 -8 -13 -3 0 -6 -8 -7 -17 -1 -10 -8 -43 -17 -73 -9 -30 -19
-63 -21 -73 -7 -30 -57 -211 -63 -227 -8 -22 -10 -30 -27 -100 -2 -8 -4 -15
-5 -15 -1 0 -3 -7 -5 -15 -1 -8 -9 -35 -16 -60 -7 -25 -14 -52 -16 -60 -1 -8
-16 -62 -33 -120 -29 -96 -37 -126 -43 -155 -2 -5 -6 -16 -10 -22 -5 -7 -6
-13 -4 -13 3 0 -12 -59 -33 -130 -21 -72 -35 -132 -31 -134 15 -9 492 -2 498
7 3 5 14 41 24 81 11 39 21 78 24 86 2 8 14 51 25 95 12 44 24 87 27 95 3 8 7
20 8 25 2 6 8 30 16 55 7 25 14 52 15 60 2 8 10 38 18 65 14 42 22 72 42 148
1 4 3 10 4 15 1 4 3 12 5 17 1 6 3 12 4 15 2 3 4 12 6 20 2 8 11 40 20 70 9
30 17 62 19 70 2 8 9 35 16 60 7 25 13 51 13 58 0 6 4 12 9 12 5 0 6 4 3 10
-3 5 0 20 7 32 7 13 11 27 10 32 -2 4 3 25 10 45 7 20 13 41 14 46 0 6 7 30
14 55 7 25 15 50 16 55 2 6 15 53 30 105 14 52 27 100 28 105 1 6 10 37 20 70
10 33 20 67 22 75 7 31 23 86 33 118 5 18 10 33 10 35 0 1 2 9 5 17 5 14 43
154 51 190 2 8 9 31 14 50 6 19 11 36 11 37 0 8 -500 2 -504 -5z"/>
</g>
</svg>
