<?xml version="1.0" encoding="UTF-8" standalone="no"?>
<svg width="1024px" height="1024px" viewBox="0 0 1024 1024" version="1.1" xmlns="http://www.w3.org/2000/svg" xmlns:xlink="http://www.w3.org/1999/xlink">
    <!-- Generator: Sketch 3.8.3 (29802) - http://www.bohemiancoding.com/sketch -->
    <title>1024</title>
    <desc>Created with Sketch.</desc>
    <defs>
        <path d="M936.450195,558.103516 C936.450195,564.613965 934.212262,570.310522 929.736328,575.193359 C925.260394,580.076196 920.011423,582.517578 913.989258,582.517578 L899.584961,582.517578 C897.469065,582.517578 896.411133,583.331372 896.411133,584.958984 C896.411133,585.447268 898.1201,587.318994 901.538086,590.574219 C905.444355,594.317727 907.397461,599.770146 907.397461,606.931641 C907.397461,615.557986 904.83401,621.539371 899.707031,624.875977 C894.580052,628.212582 892.016602,630.124998 892.016602,630.613281 C892.016602,631.75261 893.481431,633.05468 896.411133,634.519531 C903.735388,638.100278 907.397461,644.773389 907.397461,654.539062 C907.397461,670.489663 897.550554,678.464844 877.856445,678.464844 C857.999575,678.464844 848.071289,670.489663 848.071289,654.539062 C848.071289,645.261672 851.896121,638.588562 859.545898,634.519531 C861.824556,633.217441 862.963867,631.915371 862.963867,630.613281 C862.963867,629.473953 861.824556,628.416021 859.545898,627.439453 C851.896121,623.370422 848.071289,616.534553 848.071289,606.931641 C848.071289,598.95634 850.67543,592.852886 855.883789,588.621094 C857.999685,586.993481 859.057617,585.772791 859.057617,584.958984 C859.057617,583.331372 857.674167,582.517578 854.907227,582.517578 L700.366211,582.517578 C683.113521,582.517578 674.487305,574.705156 674.487305,559.080078 C674.487305,553.057913 676.603169,547.564803 680.834961,542.600586 C685.066753,537.636368 689.949517,535.072917 695.483398,534.910156 L714.038086,534.421875 C714.200847,534.421875 714.526365,534.259116 715.014648,533.933594 C715.014648,533.608071 715.055338,533.363933 715.136719,533.201172 C715.218099,533.038411 715.340168,532.794272 715.50293,532.46875 C715.50293,531.654944 713.631204,529.864597 709.887695,527.097656 C705.655903,523.67967 703.540039,518.145872 703.540039,510.496094 C703.540039,503.822883 706.0628,498.167015 711.108398,493.52832 C716.153997,488.889625 722.257451,486.570312 729.418945,486.570312 C741.137754,486.570312 749.194314,488.1979 753.588867,491.453125 C759.773794,496.498723 762.866211,502.520798 762.866211,509.519531 C762.866211,517.983115 760.424829,524.167949 755.541992,528.074219 C752.775051,530.190115 751.391602,531.817703 751.391602,532.957031 C751.391602,534.259121 753.588845,534.910156 757.983398,534.910156 L845.385742,534.910156 C854.500371,534.910156 859.057617,534.096362 859.057617,532.46875 C859.057617,531.492183 857.185891,529.539077 853.442383,526.609375 C849.861636,522.865867 848.071289,517.332068 848.071289,510.007812 C848.071289,501.544229 852.547156,494.464221 861.499023,488.767578 C862.475591,487.953772 862.963867,487.221357 862.963867,486.570312 C862.963867,485.756506 861.336279,484.373057 858.081055,482.419922 C851.082322,478.676414 847.583008,471.840544 847.583008,461.912109 C847.583008,454.750615 850.919563,448.240264 857.592773,442.380859 C858.40658,441.567053 858.894856,440.916018 859.057617,440.427734 C859.057617,439.125645 858.162444,438.474609 856.37207,438.474609 L824.87793,438.474609 C817.716436,438.474609 811.69436,436.155297 806.811523,431.516602 C801.928687,426.877906 799.487305,421.222039 799.487305,414.548828 C799.487305,408.526663 801.765928,402.992864 806.323242,397.947266 C810.880557,392.901667 815.926079,390.378906 821.459961,390.378906 L855.395508,390.378906 C857.836926,390.378906 859.057617,389.565112 859.057617,387.9375 C859.057617,387.123694 857.836926,385.821624 855.395508,384.03125 C850.187148,379.799458 847.583008,373.777383 847.583008,365.964844 C847.583008,350.014243 856.6975,342.039062 874.926758,342.039062 C884.52967,342.039062 891.36554,343.178374 895.43457,345.457031 C903.409871,350.014346 907.397461,356.850215 907.397461,365.964844 C907.397461,375.730518 903.084353,382.729146 894.458008,386.960938 C892.830396,387.774744 892.016602,388.751296 892.016602,389.890625 C892.016602,390.867192 894.376604,392.901677 899.09668,395.994141 C904.630562,399.90041 907.397461,406.085244 907.397461,414.548828 C907.397461,423.175173 903.084353,430.173801 894.458008,435.544922 C892.993157,436.521489 892.179363,437.335283 892.016602,437.986328 C892.016602,439.61394 893.481431,440.916011 896.411133,441.892578 C903.735388,445.961609 907.397461,452.634719 907.397461,461.912109 C907.397461,467.771514 906.095391,472.32876 903.491211,475.583984 C902.840166,476.560552 899.259473,479.571589 892.749023,484.617188 C892.26074,485.105471 892.016602,485.756506 892.016602,486.570312 C892.016602,487.384119 893.318672,488.52343 895.922852,489.988281 C903.572629,494.220073 907.397461,501.055942 907.397461,510.496094 C907.397461,517.494827 905.444355,522.865867 901.538086,526.609375 L896.411133,531.003906 C896.08561,531.329429 895.922852,531.817705 895.922852,532.46875 C895.922852,533.77084 896.980784,534.421875 899.09668,534.421875 L914.96582,534.910156 C920.499702,535.072917 925.463845,537.514299 929.858398,542.234375 C934.252952,546.954451 936.450195,552.244111 936.450195,558.103516 L936.450195,558.103516 Z" id="path-1"></path>
        <filter x="-50%" y="-50%" width="200%" height="200%" filterUnits="objectBoundingBox" id="filter-2">
            <feMorphology radius="0.5" operator="dilate" in="SourceAlpha" result="shadowSpreadOuter1"></feMorphology>
            <feOffset dx="0" dy="0" in="shadowSpreadOuter1" result="shadowOffsetOuter1"></feOffset>
            <feGaussianBlur stdDeviation="25" in="shadowOffsetOuter1" result="shadowBlurOuter1"></feGaussianBlur>
            <feColorMatrix values="0 0 0 0 0   0 0 0 0 0   0 0 0 0 0  0 0 0 0.321161685 0" type="matrix" in="shadowBlurOuter1"></feColorMatrix>
        </filter>
        <path d="M495.555664,557.615234 C495.555664,563.962922 492.195662,569.61879 487.475586,574.583008 C482.75551,579.547225 477.303091,582.029297 471.118164,582.029297 L436.450195,582.029297 C435.473628,582.192058 434.985352,582.680334 434.985352,583.494141 C434.985352,584.145186 436.124663,585.610015 438.40332,587.888672 C443.774441,591.63218 446.459961,597.328738 446.459961,604.978516 C446.459961,620.929116 436.775813,628.904297 417.407227,628.904297 C397.224834,628.904297 387.133789,621.091875 387.133789,605.466797 C387.133789,596.189407 390.470344,589.679055 397.143555,585.935547 C400.724302,583.982412 402.514648,582.517583 402.514648,581.541016 C402.351887,580.564448 402.02637,580.076172 401.538086,580.076172 L395.43457,575.925781 C390.226211,572.345034 387.62207,566.24158 387.62207,557.615234 C387.62207,547.849561 391.935178,540.850933 400.561523,536.619141 C401.700852,536.130857 402.351887,535.398442 402.514648,534.421875 C402.514648,533.282546 401.538096,532.143235 399.584961,531.003906 C391.609661,526.609353 387.62207,519.610725 387.62207,510.007812 C387.62207,500.730422 391.772419,493.894553 400.073242,489.5 C402.026377,488.523433 403.00293,487.54688 403.00293,486.570312 C403.00293,485.593745 402.189136,484.535813 400.561523,483.396484 C391.935178,478.188125 387.62207,471.189497 387.62207,462.400391 C387.62207,453.611284 391.121384,446.938174 398.120117,442.380859 C401.700864,440.753247 403.491211,439.451177 403.491211,438.474609 C403.32845,437.498042 403.002932,437.009766 402.514648,437.009766 L395.922852,433.103516 C390.714492,429.68553 388.110352,423.663455 388.110352,415.037109 C388.110352,399.086509 398.120017,391.111328 418.139648,391.111328 C437.345474,391.111328 446.948242,399.412026 446.948242,416.013672 C446.948242,425.291062 442.960652,431.964172 434.985352,436.033203 C433.032217,437.009771 432.055664,437.986323 432.055664,438.962891 C432.055664,440.102219 432.869458,441.078772 434.49707,441.892578 C442.797893,446.12437 446.948242,453.122998 446.948242,462.888672 C446.948242,472.003301 443.123411,478.676411 435.473633,482.908203 C433.194976,484.210293 432.055664,485.430984 432.055664,486.570312 C432.055664,487.384119 433.520493,488.686189 436.450195,490.476562 C443.448928,494.545593 446.948242,501.218704 446.948242,510.496094 C446.948242,516.518259 445.157896,521.319644 441.577148,524.900391 L435.961914,530.515625 C435.961914,530.841147 435.921224,531.085286 435.839844,531.248047 L435.473633,531.980469 C435.473633,533.608081 436.124668,534.421875 437.426758,534.421875 L471.606445,534.421875 C477.791372,534.421875 483.162412,536.659808 487.719727,541.135742 C492.277041,545.611676 494.555664,551.104785 494.555664,557.615234 L495.555664,557.615234 Z" id="path-3"></path>
        <filter x="-50%" y="-50%" width="200%" height="200%" filterUnits="objectBoundingBox" id="filter-4">
            <feMorphology radius="0.5" operator="dilate" in="SourceAlpha" result="shadowSpreadOuter1"></feMorphology>
            <feOffset dx="0" dy="0" in="shadowSpreadOuter1" result="shadowOffsetOuter1"></feOffset>
            <feGaussianBlur stdDeviation="25" in="shadowOffsetOuter1" result="shadowBlurOuter1"></feGaussianBlur>
            <feColorMatrix values="0 0 0 0 0   0 0 0 0 0   0 0 0 0 0  0 0 0 0.321161685 0" type="matrix" in="shadowBlurOuter1"></feColorMatrix>
        </filter>
    </defs>
    <g id="Page-1" stroke="none" stroke-width="1" fill="none" fill-rule="evenodd">
        <g id="1024">
            <g id="Path1.5">
                <use fill="black" fill-opacity="1" filter="url(#filter-2)" xlink:href="#path-1"></use>
                <use fill="#333333" fill-rule="evenodd" xlink:href="#path-1"></use>
                <use fill="black" fill-opacity="1" xlink:href="#path-1"></use>
            </g>
            <g id="Path1.5">
                <use fill="black" fill-opacity="1" filter="url(#filter-4)" xlink:href="#path-3"></use>
                <use fill="#333333" fill-rule="evenodd" xlink:href="#path-3"></use>
                <use fill="black" fill-opacity="1" xlink:href="#path-3"></use>
            </g>
        </g>
    </g>
</svg>