<?xml version="1.0" encoding="UTF-8" standalone="no"?>
<svg width="1024px" height="1024px" viewBox="0 0 1024 1024" version="1.1" xmlns="http://www.w3.org/2000/svg" xmlns:xlink="http://www.w3.org/1999/xlink">
    <!-- Generator: Sketch 3.8.3 (29802) - http://www.bohemiancoding.com/sketch -->
    <title>1024</title>
    <desc>Created with Sketch.</desc>
    <defs>
        <path d="M811.450195,461.423828 C811.450195,478.188235 801.115012,486.570312 780.444336,486.570312 C761.07575,486.570312 751.391602,478.513752 751.391602,462.400391 C751.391602,446.44979 760.750232,438.474609 779.467773,438.474609 C791.023821,438.474609 799.24314,440.712543 804.125977,445.188477 C809.008813,449.66441 811.450195,455.07614 811.450195,461.423828 L811.450195,461.423828 Z" id="path-1"></path>
        <filter x="-50%" y="-50%" width="200%" height="200%" filterUnits="objectBoundingBox" id="filter-2">
            <feMorphology radius="0.5" operator="dilate" in="SourceAlpha" result="shadowSpreadOuter1"></feMorphology>
            <feOffset dx="0" dy="0" in="shadowSpreadOuter1" result="shadowOffsetOuter1"></feOffset>
            <feGaussianBlur stdDeviation="25" in="shadowOffsetOuter1" result="shadowBlurOuter1"></feGaussianBlur>
            <feColorMatrix values="0 0 0 0 0   0 0 0 0 0   0 0 0 0 0  0 0 0 0.321161685 0" type="matrix" in="shadowBlurOuter1"></feColorMatrix>
        </filter>
        <path d="M589.038086,653.074219 C589.038086,669.024819 580.49325,677 563.40332,677 L457.93457,677 C451.749644,677 446.297224,674.639998 441.577148,669.919922 C436.857073,665.199846 434.49707,659.747427 434.49707,653.5625 C434.49707,642.494736 439.217075,635.33335 448.657227,632.078125 C451.586929,631.101558 456.713831,630.613281 464.038086,630.613281 L565.600586,630.613281 C572.111035,630.613281 577.644834,632.769835 582.202148,637.083008 C586.759463,641.39618 589.038086,646.726531 589.038086,653.074219 L589.038086,653.074219 Z" id="path-3"></path>
        <filter x="-50%" y="-50%" width="200%" height="200%" filterUnits="objectBoundingBox" id="filter-4">
            <feMorphology radius="0.5" operator="dilate" in="SourceAlpha" result="shadowSpreadOuter1"></feMorphology>
            <feOffset dx="0" dy="0" in="shadowSpreadOuter1" result="shadowOffsetOuter1"></feOffset>
            <feGaussianBlur stdDeviation="25" in="shadowOffsetOuter1" result="shadowBlurOuter1"></feGaussianBlur>
            <feColorMatrix values="0 0 0 0 0   0 0 0 0 0   0 0 0 0 0  0 0 0 0.321161685 0" type="matrix" in="shadowBlurOuter1"></feColorMatrix>
        </filter>
        <path d="M343.920898,558.103516 C343.920898,564.613965 341.682965,570.310522 337.207031,575.193359 C332.731097,580.076196 327.482126,582.517578 321.459961,582.517578 L307.055664,582.517578 C304.939768,582.517578 303.881836,583.331372 303.881836,584.958984 C303.881836,585.447268 305.590803,587.318994 309.008789,590.574219 C312.915059,594.317727 314.868164,599.770146 314.868164,606.931641 C314.868164,615.557986 312.304713,621.539371 307.177734,624.875977 C302.050756,628.212582 299.487305,630.124998 299.487305,630.613281 C299.487305,631.75261 300.952134,633.05468 303.881836,634.519531 C311.206091,638.100278 314.868164,644.773389 314.868164,654.539062 C314.868164,670.489663 305.021257,678.464844 285.327148,678.464844 C265.470278,678.464844 255.541992,670.489663 255.541992,654.539062 C255.541992,645.261672 259.366824,638.588562 267.016602,634.519531 C269.295259,633.217441 270.43457,631.915371 270.43457,630.613281 C270.43457,629.473953 269.295259,628.416021 267.016602,627.439453 C259.366824,623.370422 255.541992,616.534553 255.541992,606.931641 C255.541992,598.95634 258.146133,592.852886 263.354492,588.621094 C265.470388,586.993481 266.52832,585.772791 266.52832,584.958984 C266.52832,583.331372 265.144871,582.517578 262.37793,582.517578 L107.836914,582.517578 C90.5842236,582.517578 81.9580078,574.705156 81.9580078,559.080078 C81.9580078,553.057913 84.0738721,547.564803 88.3056641,542.600586 C92.5374561,537.636368 97.4202197,535.072917 102.954102,534.910156 L121.508789,534.421875 C121.67155,534.421875 121.997068,534.259116 122.485352,533.933594 C122.485352,533.608071 122.526041,533.363933 122.607422,533.201172 C122.688802,533.038411 122.810872,532.794272 122.973633,532.46875 C122.973633,531.654944 121.101907,529.864597 117.358398,527.097656 C113.126606,523.67967 111.010742,518.145872 111.010742,510.496094 C111.010742,503.822883 113.533503,498.167015 118.579102,493.52832 C123.6247,488.889625 129.728154,486.570312 136.889648,486.570312 C148.608457,486.570312 156.665017,488.1979 161.05957,491.453125 C167.244497,496.498723 170.336914,502.520798 170.336914,509.519531 C170.336914,517.983115 167.895532,524.167949 163.012695,528.074219 C160.245754,530.190115 158.862305,531.817703 158.862305,532.957031 C158.862305,534.259121 161.059548,534.910156 165.454102,534.910156 L252.856445,534.910156 C261.971074,534.910156 266.52832,534.096362 266.52832,532.46875 C266.52832,531.492183 264.656594,529.539077 260.913086,526.609375 C257.332339,522.865867 255.541992,517.332068 255.541992,510.007812 C255.541992,501.544229 260.017859,494.464221 268.969727,488.767578 C269.946294,487.953772 270.43457,487.221357 270.43457,486.570312 C270.43457,485.756506 268.806982,484.373057 265.551758,482.419922 C258.553025,478.676414 255.053711,471.840544 255.053711,461.912109 C255.053711,454.750615 258.390266,448.240264 265.063477,442.380859 C265.877283,441.567053 266.365559,440.916018 266.52832,440.427734 C266.52832,439.125645 265.633147,438.474609 263.842773,438.474609 L232.348633,438.474609 C225.187139,438.474609 219.165063,436.155297 214.282227,431.516602 C209.39939,426.877906 206.958008,421.222039 206.958008,414.548828 C206.958008,408.526663 209.236631,402.992864 213.793945,397.947266 C218.35126,392.901667 223.396782,390.378906 228.930664,390.378906 L262.866211,390.378906 C265.307629,390.378906 266.52832,389.565112 266.52832,387.9375 C266.52832,387.123694 265.307629,385.821624 262.866211,384.03125 C257.657852,379.799458 255.053711,373.777383 255.053711,365.964844 C255.053711,350.014243 264.168203,342.039062 282.397461,342.039062 C292.000374,342.039062 298.836243,343.178374 302.905273,345.457031 C310.880574,350.014346 314.868164,356.850215 314.868164,365.964844 C314.868164,375.730518 310.555056,382.729146 301.928711,386.960938 C300.301099,387.774744 299.487305,388.751296 299.487305,389.890625 C299.487305,390.867192 301.847307,392.901677 306.567383,395.994141 C312.101265,399.90041 314.868164,406.085244 314.868164,414.548828 C314.868164,423.175173 310.555056,430.173801 301.928711,435.544922 C300.46386,436.521489 299.650066,437.335283 299.487305,437.986328 C299.487305,439.61394 300.952134,440.916011 303.881836,441.892578 C311.206091,445.961609 314.868164,452.634719 314.868164,461.912109 C314.868164,467.771514 313.566094,472.32876 310.961914,475.583984 C310.310869,476.560552 306.730176,479.571589 300.219727,484.617188 C299.731443,485.105471 299.487305,485.756506 299.487305,486.570312 C299.487305,487.384119 300.789375,488.52343 303.393555,489.988281 C311.043333,494.220073 314.868164,501.055942 314.868164,510.496094 C314.868164,517.494827 312.915059,522.865867 309.008789,526.609375 L303.881836,531.003906 C303.556313,531.329429 303.393555,531.817705 303.393555,532.46875 C303.393555,533.77084 304.451487,534.421875 306.567383,534.421875 L322.436523,534.910156 C327.970405,535.072917 332.934548,537.514299 337.329102,542.234375 C341.723655,546.954451 343.920898,552.244111 343.920898,558.103516 L343.920898,558.103516 Z" id="path-5"></path>
        <filter x="-50%" y="-50%" width="200%" height="200%" filterUnits="objectBoundingBox" id="filter-6">
            <feMorphology radius="0.5" operator="dilate" in="SourceAlpha" result="shadowSpreadOuter1"></feMorphology>
            <feOffset dx="0" dy="0" in="shadowSpreadOuter1" result="shadowOffsetOuter1"></feOffset>
            <feGaussianBlur stdDeviation="25" in="shadowOffsetOuter1" result="shadowBlurOuter1"></feGaussianBlur>
            <feColorMatrix values="0 0 0 0 0   0 0 0 0 0   0 0 0 0 0  0 0 0 0.321161685 0" type="matrix" in="shadowBlurOuter1"></feColorMatrix>
        </filter>
    </defs>
    <g id="Page-1" stroke="none" stroke-width="1" fill="none" fill-rule="evenodd">
        <g id="1024">
            <g id="Path2">
                <use fill="black" fill-opacity="1" filter="url(#filter-2)" xlink:href="#path-1"></use>
                <use fill="#333333" fill-rule="evenodd" xlink:href="#path-1"></use>
                <use fill="black" fill-opacity="1" xlink:href="#path-1"></use>
            </g>
            <g id="Path2">
                <use fill="black" fill-opacity="1" filter="url(#filter-4)" xlink:href="#path-3"></use>
                <use fill="#333333" fill-rule="evenodd" xlink:href="#path-3"></use>
                <use fill="black" fill-opacity="1" xlink:href="#path-3"></use>
            </g>
            <g id="Path2">
                <use fill="black" fill-opacity="1" filter="url(#filter-6)" xlink:href="#path-5"></use>
                <use fill="#333333" fill-rule="evenodd" xlink:href="#path-5"></use>
                <use fill="black" fill-opacity="1" xlink:href="#path-5"></use>
            </g>
        </g>
    </g>
</svg>