<?xml version="1.0" encoding="UTF-8" standalone="no"?>
<svg width="1024px" height="1024px" viewBox="0 0 1024 1024" version="1.1" xmlns="http://www.w3.org/2000/svg" xmlns:xlink="http://www.w3.org/1999/xlink">
    <!-- Generator: Sketch 3.8.3 (29802) - http://www.bohemiancoding.com/sketch -->
    <title>1024</title>
    <desc>Created with Sketch.</desc>
    <defs>
        <path d="M638.62207,464.109375 C638.62207,472.73572 634.611033,478.839175 628.588867,482.419922 L623.461914,485.59375 C622.810869,485.919272 622.485352,486.570308 622.485352,487.546875 C622.485352,488.686204 623.868801,489.988274 626.635742,491.453125 C633.634475,495.522156 637.133789,502.195266 637.133789,511.472656 C637.133789,520.587285 633.146199,527.504534 625.170898,532.224609 C623.217764,533.526699 622.159832,534.421873 621.99707,534.910156 C621.99707,536.375007 623.543279,537.921216 626.635742,539.548828 C633.634475,543.129575 637.133789,549.639927 637.133789,559.080078 C637.133789,567.706423 634.122751,573.809878 628.100586,577.390625 C624.031555,579.994805 621.99707,581.703772 621.99707,582.517578 C621.99707,583.494146 622.322588,584.307939 622.973633,584.958984 L628.588867,588.621094 C634.28551,592.201841 637.133789,597.979778 637.133789,605.955078 C637.133789,615.883513 632.902061,622.882141 624.438477,626.951172 C620.532207,628.904307 614.265994,629.880859 605.639648,629.880859 C586.922107,629.880859 577.563477,621.905679 577.563477,605.955078 C577.563477,596.677688 581.225549,590.004578 588.549805,585.935547 C591.479507,584.796218 592.944336,583.819666 592.944336,583.005859 C592.944336,582.029292 590.462264,579.832048 585.498047,576.414062 C580.533829,572.996077 578.051758,567.21814 578.051758,559.080078 C578.051758,549.314404 581.225554,542.804053 587.573242,539.548828 C591.31675,537.595693 593.269856,536.212244 593.432617,535.398438 C593.432617,534.910154 590.991235,532.957048 586.108398,529.539062 C580.737278,524.818987 578.051758,518.634153 578.051758,510.984375 C578.051758,502.683552 580.900037,496.661477 586.59668,492.917969 C588.549814,491.615879 589.526367,490.476567 589.526367,489.5 C589.526367,487.872388 589.038091,487.058594 588.061523,487.058594 L553.637695,487.058594 C547.452769,487.058594 542.041039,484.779971 537.402344,480.222656 C532.763649,475.665342 530.444336,470.294302 530.444336,464.109375 C530.444336,454.506462 534.431926,447.507834 542.407227,443.113281 C546.639019,440.671863 553.474888,439.451172 562.915039,439.451172 L582.93457,439.451172 C582.771809,439.451172 583.9925,439.613931 586.59668,439.939453 C588.875337,439.939453 590.014648,439.288418 590.014648,437.986328 C589.851887,437.660806 589.689128,437.335288 589.526367,437.009766 L583.422852,430.90625 C580.167627,427.651025 578.540039,422.686882 578.540039,416.013672 C578.540039,400.063071 588.224187,392.087891 607.592773,392.087891 C627.612405,392.087891 637.62207,400.22583 637.62207,416.501953 C637.62207,425.453821 633.390342,432.28969 624.926758,437.009766 C623.624668,437.823572 622.810874,438.800125 622.485352,439.939453 C622.485352,440.753259 624.845354,442.787744 629.56543,446.042969 C634.93655,448.972671 637.62207,454.994746 637.62207,464.109375 L638.62207,464.109375 Z" id="path-1"></path>
        <filter x="-50%" y="-50%" width="200%" height="200%" filterUnits="objectBoundingBox" id="filter-2">
            <feMorphology radius="0.5" operator="dilate" in="SourceAlpha" result="shadowSpreadOuter1"></feMorphology>
            <feOffset dx="0" dy="0" in="shadowSpreadOuter1" result="shadowOffsetOuter1"></feOffset>
            <feGaussianBlur stdDeviation="25" in="shadowOffsetOuter1" result="shadowBlurOuter1"></feGaussianBlur>
            <feColorMatrix values="0 0 0 0 0   0 0 0 0 0   0 0 0 0 0  0 0 0 0.321161685 0" type="matrix" in="shadowBlurOuter1"></feColorMatrix>
        </filter>
        <path d="M187.915039,486.570312 C168.546453,486.570312 158.862305,478.513752 158.862305,462.400391 C158.862305,446.44979 168.220935,438.474609 186.938477,438.474609 C198.494524,438.474609 206.713843,440.712543 211.59668,445.188477 C216.479517,449.66441 218.920898,455.07614 218.920898,461.423828 C218.920898,478.188235 208.585715,486.570312 187.915039,486.570312 Z" id="path-3"></path>
        <filter x="-50%" y="-50%" width="200%" height="200%" filterUnits="objectBoundingBox" id="filter-4">
            <feMorphology radius="0.5" operator="dilate" in="SourceAlpha" result="shadowSpreadOuter1"></feMorphology>
            <feOffset dx="0" dy="0" in="shadowSpreadOuter1" result="shadowOffsetOuter1"></feOffset>
            <feGaussianBlur stdDeviation="25" in="shadowOffsetOuter1" result="shadowBlurOuter1"></feGaussianBlur>
            <feColorMatrix values="0 0 0 0 0   0 0 0 0 0   0 0 0 0 0  0 0 0 0.321161685 0" type="matrix" in="shadowBlurOuter1"></feColorMatrix>
        </filter>
    </defs>
    <g id="Page-1" stroke="none" stroke-width="1" fill="none" fill-rule="evenodd">
        <g id="1024">
            <g id="Path1">
                <use fill="black" fill-opacity="1" filter="url(#filter-2)" xlink:href="#path-1"></use>
                <use fill="#333333" fill-rule="evenodd" xlink:href="#path-1"></use>
                <use fill="black" fill-opacity="1" xlink:href="#path-1"></use>
            </g>
            <g id="Path1">
                <use fill="black" fill-opacity="1" filter="url(#filter-4)" xlink:href="#path-3"></use>
                <use fill="#333333" fill-rule="evenodd" xlink:href="#path-3"></use>
                <use fill="black" fill-opacity="1" xlink:href="#path-3"></use>
            </g>
        </g>
    </g>
</svg>