<?xml version="1.0" encoding="UTF-8" standalone="no"?>
<svg width="1024px" height="1024px" viewBox="0 0 1024 1024" version="1.1" xmlns="http://www.w3.org/2000/svg" xmlns:xlink="http://www.w3.org/1999/xlink">
    <!-- Generator: Sketch 3.8.3 (29802) - http://www.bohemiancoding.com/sketch -->
    <title>1024</title>
    <desc>Created with Sketch.</desc>
    <defs>
        <path d="M811.450195,461.423828 C811.450195,478.188235 801.115012,486.570312 780.444336,486.570312 C761.07575,486.570312 751.391602,478.513752 751.391602,462.400391 C751.391602,446.44979 760.750232,438.474609 779.467773,438.474609 C791.023821,438.474609 799.24314,440.712543 804.125977,445.188477 C809.008813,449.66441 811.450195,455.07614 811.450195,461.423828 L811.450195,461.423828 Z" id="path-1"></path>
        <filter x="-50%" y="-50%" width="200%" height="200%" filterUnits="objectBoundingBox" id="filter-2">
            <feMorphology radius="0.5" operator="dilate" in="SourceAlpha" result="shadowSpreadOuter1"></feMorphology>
            <feOffset dx="0" dy="0" in="shadowSpreadOuter1" result="shadowOffsetOuter1"></feOffset>
            <feGaussianBlur stdDeviation="25" in="shadowOffsetOuter1" result="shadowBlurOuter1"></feGaussianBlur>
            <feColorMatrix values="0 0 0 0 0   0 0 0 0 0   0 0 0 0 0  0 0 0 0.321161685 0" type="matrix" in="shadowBlurOuter1"></feColorMatrix>
        </filter>
        <path d="M589.038086,653.074219 C589.038086,669.024819 580.49325,677 563.40332,677 L457.93457,677 C451.749644,677 446.297224,674.639998 441.577148,669.919922 C436.857073,665.199846 434.49707,659.747427 434.49707,653.5625 C434.49707,642.494736 439.217075,635.33335 448.657227,632.078125 C451.586929,631.101558 456.713831,630.613281 464.038086,630.613281 L565.600586,630.613281 C572.111035,630.613281 577.644834,632.769835 582.202148,637.083008 C586.759463,641.39618 589.038086,646.726531 589.038086,653.074219 L589.038086,653.074219 Z" id="path-3"></path>
        <filter x="-50%" y="-50%" width="200%" height="200%" filterUnits="objectBoundingBox" id="filter-4">
            <feMorphology radius="0.5" operator="dilate" in="SourceAlpha" result="shadowSpreadOuter1"></feMorphology>
            <feOffset dx="0" dy="0" in="shadowSpreadOuter1" result="shadowOffsetOuter1"></feOffset>
            <feGaussianBlur stdDeviation="25" in="shadowOffsetOuter1" result="shadowBlurOuter1"></feGaussianBlur>
            <feColorMatrix values="0 0 0 0 0   0 0 0 0 0   0 0 0 0 0  0 0 0 0.321161685 0" type="matrix" in="shadowBlurOuter1"></feColorMatrix>
        </filter>
        <path d="M541.918945,510.496094 C541.918945,521.563857 536.954802,528.969382 527.026367,532.712891 C523.771143,533.852219 518.562861,534.421875 511.401367,534.421875 C492.521064,534.421875 483.081055,526.934971 483.081055,511.960938 C483.081055,495.359292 492.765203,487.058594 512.133789,487.058594 C531.990659,487.058594 541.918945,494.871016 541.918945,510.496094 L541.918945,510.496094 Z" id="path-5"></path>
        <filter x="-50%" y="-50%" width="200%" height="200%" filterUnits="objectBoundingBox" id="filter-6">
            <feMorphology radius="0.5" operator="dilate" in="SourceAlpha" result="shadowSpreadOuter1"></feMorphology>
            <feOffset dx="0" dy="0" in="shadowSpreadOuter1" result="shadowOffsetOuter1"></feOffset>
            <feGaussianBlur stdDeviation="25" in="shadowOffsetOuter1" result="shadowBlurOuter1"></feGaussianBlur>
            <feColorMatrix values="0 0 0 0 0   0 0 0 0 0   0 0 0 0 0  0 0 0 0.321161685 0" type="matrix" in="shadowBlurOuter1"></feColorMatrix>
        </filter>
        <path d="M590.50293,367.429688 C590.50293,383.217527 581.469817,391.111328 563.40332,391.111328 L460.620117,391.111328 C453.784146,391.111328 447.965519,388.832705 443.164062,384.275391 C438.362606,379.718076 435.961914,374.102898 435.961914,367.429688 C435.961914,351.479087 445.157786,343.503906 463.549805,343.503906 L565.112305,343.503906 C572.273799,343.503906 578.295874,345.823219 583.178711,350.461914 C588.061548,355.100609 590.50293,360.756477 590.50293,367.429688 L590.50293,367.429688 Z" id="path-7"></path>
        <filter x="-50%" y="-50%" width="200%" height="200%" filterUnits="objectBoundingBox" id="filter-8">
            <feMorphology radius="0.5" operator="dilate" in="SourceAlpha" result="shadowSpreadOuter1"></feMorphology>
            <feOffset dx="0" dy="0" in="shadowSpreadOuter1" result="shadowOffsetOuter1"></feOffset>
            <feGaussianBlur stdDeviation="25" in="shadowOffsetOuter1" result="shadowBlurOuter1"></feGaussianBlur>
            <feColorMatrix values="0 0 0 0 0   0 0 0 0 0   0 0 0 0 0  0 0 0 0.321161685 0" type="matrix" in="shadowBlurOuter1"></feColorMatrix>
        </filter>
        <path d="M343.920898,558.103516 C343.920898,564.613965 341.682965,570.310522 337.207031,575.193359 C332.731097,580.076196 327.482126,582.517578 321.459961,582.517578 L307.055664,582.517578 C304.939768,582.517578 303.881836,583.331372 303.881836,584.958984 C303.881836,585.447268 305.590803,587.318994 309.008789,590.574219 C312.915059,594.317727 314.868164,599.770146 314.868164,606.931641 C314.868164,615.557986 312.304713,621.539371 307.177734,624.875977 C302.050756,628.212582 299.487305,630.124998 299.487305,630.613281 C299.487305,631.75261 300.952134,633.05468 303.881836,634.519531 C311.206091,638.100278 314.868164,644.773389 314.868164,654.539062 C314.868164,670.489663 305.021257,678.464844 285.327148,678.464844 C265.470278,678.464844 255.541992,670.489663 255.541992,654.539062 C255.541992,645.261672 259.366824,638.588562 267.016602,634.519531 C269.295259,633.217441 270.43457,631.915371 270.43457,630.613281 C270.43457,629.473953 269.295259,628.416021 267.016602,627.439453 C259.366824,623.370422 255.541992,616.534553 255.541992,606.931641 C255.541992,598.95634 258.146133,592.852886 263.354492,588.621094 C265.470388,586.993481 266.52832,585.772791 266.52832,584.958984 C266.52832,583.331372 265.144871,582.517578 262.37793,582.517578 L107.836914,582.517578 C90.5842236,582.517578 81.9580078,574.705156 81.9580078,559.080078 C81.9580078,553.057913 84.0738721,547.564803 88.3056641,542.600586 C92.5374561,537.636368 97.4202197,535.072917 102.954102,534.910156 L121.508789,534.421875 C121.67155,534.421875 121.997068,534.259116 122.485352,533.933594 C122.485352,533.608071 122.526041,533.363933 122.607422,533.201172 C122.688802,533.038411 122.810872,532.794272 122.973633,532.46875 C122.973633,531.654944 121.101907,529.864597 117.358398,527.097656 C113.126606,523.67967 111.010742,518.145872 111.010742,510.496094 C111.010742,503.822883 113.533503,498.167015 118.579102,493.52832 C123.6247,488.889625 129.728154,486.570312 136.889648,486.570312 C148.608457,486.570312 156.665017,488.1979 161.05957,491.453125 C167.244497,496.498723 170.336914,502.520798 170.336914,509.519531 C170.336914,517.983115 167.895532,524.167949 163.012695,528.074219 C160.245754,530.190115 158.862305,531.817703 158.862305,532.957031 C158.862305,534.259121 161.059548,534.910156 165.454102,534.910156 L252.856445,534.910156 C261.971074,534.910156 266.52832,534.096362 266.52832,532.46875 C266.52832,531.492183 264.656594,529.539077 260.913086,526.609375 C257.332339,522.865867 255.541992,517.332068 255.541992,510.007812 C255.541992,501.544229 260.017859,494.464221 268.969727,488.767578 C269.946294,487.953772 270.43457,487.221357 270.43457,486.570312 C270.43457,485.756506 268.806982,484.373057 265.551758,482.419922 C258.553025,478.676414 255.053711,471.840544 255.053711,461.912109 C255.053711,454.750615 258.390266,448.240264 265.063477,442.380859 C265.877283,441.567053 266.365559,440.916018 266.52832,440.427734 C266.52832,439.125645 265.633147,438.474609 263.842773,438.474609 L232.348633,438.474609 C225.187139,438.474609 219.165063,436.155297 214.282227,431.516602 C209.39939,426.877906 206.958008,421.222039 206.958008,414.548828 C206.958008,408.526663 209.236631,402.992864 213.793945,397.947266 C218.35126,392.901667 223.396782,390.378906 228.930664,390.378906 L262.866211,390.378906 C265.307629,390.378906 266.52832,389.565112 266.52832,387.9375 C266.52832,387.123694 265.307629,385.821624 262.866211,384.03125 C257.657852,379.799458 255.053711,373.777383 255.053711,365.964844 C255.053711,350.014243 264.168203,342.039062 282.397461,342.039062 C292.000374,342.039062 298.836243,343.178374 302.905273,345.457031 C310.880574,350.014346 314.868164,356.850215 314.868164,365.964844 C314.868164,375.730518 310.555056,382.729146 301.928711,386.960938 C300.301099,387.774744 299.487305,388.751296 299.487305,389.890625 C299.487305,390.867192 301.847307,392.901677 306.567383,395.994141 C312.101265,399.90041 314.868164,406.085244 314.868164,414.548828 C314.868164,423.175173 310.555056,430.173801 301.928711,435.544922 C300.46386,436.521489 299.650066,437.335283 299.487305,437.986328 C299.487305,439.61394 300.952134,440.916011 303.881836,441.892578 C311.206091,445.961609 314.868164,452.634719 314.868164,461.912109 C314.868164,467.771514 313.566094,472.32876 310.961914,475.583984 C310.310869,476.560552 306.730176,479.571589 300.219727,484.617188 C299.731443,485.105471 299.487305,485.756506 299.487305,486.570312 C299.487305,487.384119 300.789375,488.52343 303.393555,489.988281 C311.043333,494.220073 314.868164,501.055942 314.868164,510.496094 C314.868164,517.494827 312.915059,522.865867 309.008789,526.609375 L303.881836,531.003906 C303.556313,531.329429 303.393555,531.817705 303.393555,532.46875 C303.393555,533.77084 304.451487,534.421875 306.567383,534.421875 L322.436523,534.910156 C327.970405,535.072917 332.934548,537.514299 337.329102,542.234375 C341.723655,546.954451 343.920898,552.244111 343.920898,558.103516 L343.920898,558.103516 Z" id="path-9"></path>
        <filter x="-50%" y="-50%" width="200%" height="200%" filterUnits="objectBoundingBox" id="filter-10">
            <feMorphology radius="0.5" operator="dilate" in="SourceAlpha" result="shadowSpreadOuter1"></feMorphology>
            <feOffset dx="0" dy="0" in="shadowSpreadOuter1" result="shadowOffsetOuter1"></feOffset>
            <feGaussianBlur stdDeviation="25" in="shadowOffsetOuter1" result="shadowBlurOuter1"></feGaussianBlur>
            <feColorMatrix values="0 0 0 0 0   0 0 0 0 0   0 0 0 0 0  0 0 0 0.321161685 0" type="matrix" in="shadowBlurOuter1"></feColorMatrix>
        </filter>
        <path d="M936.450195,558.103516 C936.450195,564.613965 934.212262,570.310522 929.736328,575.193359 C925.260394,580.076196 920.011423,582.517578 913.989258,582.517578 L899.584961,582.517578 C897.469065,582.517578 896.411133,583.331372 896.411133,584.958984 C896.411133,585.447268 898.1201,587.318994 901.538086,590.574219 C905.444355,594.317727 907.397461,599.770146 907.397461,606.931641 C907.397461,615.557986 904.83401,621.539371 899.707031,624.875977 C894.580052,628.212582 892.016602,630.124998 892.016602,630.613281 C892.016602,631.75261 893.481431,633.05468 896.411133,634.519531 C903.735388,638.100278 907.397461,644.773389 907.397461,654.539062 C907.397461,670.489663 897.550554,678.464844 877.856445,678.464844 C857.999575,678.464844 848.071289,670.489663 848.071289,654.539062 C848.071289,645.261672 851.896121,638.588562 859.545898,634.519531 C861.824556,633.217441 862.963867,631.915371 862.963867,630.613281 C862.963867,629.473953 861.824556,628.416021 859.545898,627.439453 C851.896121,623.370422 848.071289,616.534553 848.071289,606.931641 C848.071289,598.95634 850.67543,592.852886 855.883789,588.621094 C857.999685,586.993481 859.057617,585.772791 859.057617,584.958984 C859.057617,583.331372 857.674167,582.517578 854.907227,582.517578 L700.366211,582.517578 C683.113521,582.517578 674.487305,574.705156 674.487305,559.080078 C674.487305,553.057913 676.603169,547.564803 680.834961,542.600586 C685.066753,537.636368 689.949517,535.072917 695.483398,534.910156 L714.038086,534.421875 C714.200847,534.421875 714.526365,534.259116 715.014648,533.933594 C715.014648,533.608071 715.055338,533.363933 715.136719,533.201172 C715.218099,533.038411 715.340168,532.794272 715.50293,532.46875 C715.50293,531.654944 713.631204,529.864597 709.887695,527.097656 C705.655903,523.67967 703.540039,518.145872 703.540039,510.496094 C703.540039,503.822883 706.0628,498.167015 711.108398,493.52832 C716.153997,488.889625 722.257451,486.570312 729.418945,486.570312 C741.137754,486.570312 749.194314,488.1979 753.588867,491.453125 C759.773794,496.498723 762.866211,502.520798 762.866211,509.519531 C762.866211,517.983115 760.424829,524.167949 755.541992,528.074219 C752.775051,530.190115 751.391602,531.817703 751.391602,532.957031 C751.391602,534.259121 753.588845,534.910156 757.983398,534.910156 L845.385742,534.910156 C854.500371,534.910156 859.057617,534.096362 859.057617,532.46875 C859.057617,531.492183 857.185891,529.539077 853.442383,526.609375 C849.861636,522.865867 848.071289,517.332068 848.071289,510.007812 C848.071289,501.544229 852.547156,494.464221 861.499023,488.767578 C862.475591,487.953772 862.963867,487.221357 862.963867,486.570312 C862.963867,485.756506 861.336279,484.373057 858.081055,482.419922 C851.082322,478.676414 847.583008,471.840544 847.583008,461.912109 C847.583008,454.750615 850.919563,448.240264 857.592773,442.380859 C858.40658,441.567053 858.894856,440.916018 859.057617,440.427734 C859.057617,439.125645 858.162444,438.474609 856.37207,438.474609 L824.87793,438.474609 C817.716436,438.474609 811.69436,436.155297 806.811523,431.516602 C801.928687,426.877906 799.487305,421.222039 799.487305,414.548828 C799.487305,408.526663 801.765928,402.992864 806.323242,397.947266 C810.880557,392.901667 815.926079,390.378906 821.459961,390.378906 L855.395508,390.378906 C857.836926,390.378906 859.057617,389.565112 859.057617,387.9375 C859.057617,387.123694 857.836926,385.821624 855.395508,384.03125 C850.187148,379.799458 847.583008,373.777383 847.583008,365.964844 C847.583008,350.014243 856.6975,342.039062 874.926758,342.039062 C884.52967,342.039062 891.36554,343.178374 895.43457,345.457031 C903.409871,350.014346 907.397461,356.850215 907.397461,365.964844 C907.397461,375.730518 903.084353,382.729146 894.458008,386.960938 C892.830396,387.774744 892.016602,388.751296 892.016602,389.890625 C892.016602,390.867192 894.376604,392.901677 899.09668,395.994141 C904.630562,399.90041 907.397461,406.085244 907.397461,414.548828 C907.397461,423.175173 903.084353,430.173801 894.458008,435.544922 C892.993157,436.521489 892.179363,437.335283 892.016602,437.986328 C892.016602,439.61394 893.481431,440.916011 896.411133,441.892578 C903.735388,445.961609 907.397461,452.634719 907.397461,461.912109 C907.397461,467.771514 906.095391,472.32876 903.491211,475.583984 C902.840166,476.560552 899.259473,479.571589 892.749023,484.617188 C892.26074,485.105471 892.016602,485.756506 892.016602,486.570312 C892.016602,487.384119 893.318672,488.52343 895.922852,489.988281 C903.572629,494.220073 907.397461,501.055942 907.397461,510.496094 C907.397461,517.494827 905.444355,522.865867 901.538086,526.609375 L896.411133,531.003906 C896.08561,531.329429 895.922852,531.817705 895.922852,532.46875 C895.922852,533.77084 896.980784,534.421875 899.09668,534.421875 L914.96582,534.910156 C920.499702,535.072917 925.463845,537.514299 929.858398,542.234375 C934.252952,546.954451 936.450195,552.244111 936.450195,558.103516 L936.450195,558.103516 Z" id="path-11"></path>
        <filter x="-50%" y="-50%" width="200%" height="200%" filterUnits="objectBoundingBox" id="filter-12">
            <feMorphology radius="0.5" operator="dilate" in="SourceAlpha" result="shadowSpreadOuter1"></feMorphology>
            <feOffset dx="0" dy="0" in="shadowSpreadOuter1" result="shadowOffsetOuter1"></feOffset>
            <feGaussianBlur stdDeviation="25" in="shadowOffsetOuter1" result="shadowBlurOuter1"></feGaussianBlur>
            <feColorMatrix values="0 0 0 0 0   0 0 0 0 0   0 0 0 0 0  0 0 0 0.321161685 0" type="matrix" in="shadowBlurOuter1"></feColorMatrix>
        </filter>
        <path d="M495.555664,557.615234 C495.555664,563.962922 492.195662,569.61879 487.475586,574.583008 C482.75551,579.547225 477.303091,582.029297 471.118164,582.029297 L436.450195,582.029297 C435.473628,582.192058 434.985352,582.680334 434.985352,583.494141 C434.985352,584.145186 436.124663,585.610015 438.40332,587.888672 C443.774441,591.63218 446.459961,597.328738 446.459961,604.978516 C446.459961,620.929116 436.775813,628.904297 417.407227,628.904297 C397.224834,628.904297 387.133789,621.091875 387.133789,605.466797 C387.133789,596.189407 390.470344,589.679055 397.143555,585.935547 C400.724302,583.982412 402.514648,582.517583 402.514648,581.541016 C402.351887,580.564448 402.02637,580.076172 401.538086,580.076172 L395.43457,575.925781 C390.226211,572.345034 387.62207,566.24158 387.62207,557.615234 C387.62207,547.849561 391.935178,540.850933 400.561523,536.619141 C401.700852,536.130857 402.351887,535.398442 402.514648,534.421875 C402.514648,533.282546 401.538096,532.143235 399.584961,531.003906 C391.609661,526.609353 387.62207,519.610725 387.62207,510.007812 C387.62207,500.730422 391.772419,493.894553 400.073242,489.5 C402.026377,488.523433 403.00293,487.54688 403.00293,486.570312 C403.00293,485.593745 402.189136,484.535813 400.561523,483.396484 C391.935178,478.188125 387.62207,471.189497 387.62207,462.400391 C387.62207,453.611284 391.121384,446.938174 398.120117,442.380859 C401.700864,440.753247 403.491211,439.451177 403.491211,438.474609 C403.32845,437.498042 403.002932,437.009766 402.514648,437.009766 L395.922852,433.103516 C390.714492,429.68553 388.110352,423.663455 388.110352,415.037109 C388.110352,399.086509 398.120017,391.111328 418.139648,391.111328 C437.345474,391.111328 446.948242,399.412026 446.948242,416.013672 C446.948242,425.291062 442.960652,431.964172 434.985352,436.033203 C433.032217,437.009771 432.055664,437.986323 432.055664,438.962891 C432.055664,440.102219 432.869458,441.078772 434.49707,441.892578 C442.797893,446.12437 446.948242,453.122998 446.948242,462.888672 C446.948242,472.003301 443.123411,478.676411 435.473633,482.908203 C433.194976,484.210293 432.055664,485.430984 432.055664,486.570312 C432.055664,487.384119 433.520493,488.686189 436.450195,490.476562 C443.448928,494.545593 446.948242,501.218704 446.948242,510.496094 C446.948242,516.518259 445.157896,521.319644 441.577148,524.900391 L435.961914,530.515625 C435.961914,530.841147 435.921224,531.085286 435.839844,531.248047 L435.473633,531.980469 C435.473633,533.608081 436.124668,534.421875 437.426758,534.421875 L471.606445,534.421875 C477.791372,534.421875 483.162412,536.659808 487.719727,541.135742 C492.277041,545.611676 494.555664,551.104785 494.555664,557.615234 L495.555664,557.615234 Z" id="path-13"></path>
        <filter x="-50%" y="-50%" width="200%" height="200%" filterUnits="objectBoundingBox" id="filter-14">
            <feMorphology radius="0.5" operator="dilate" in="SourceAlpha" result="shadowSpreadOuter1"></feMorphology>
            <feOffset dx="0" dy="0" in="shadowSpreadOuter1" result="shadowOffsetOuter1"></feOffset>
            <feGaussianBlur stdDeviation="25" in="shadowOffsetOuter1" result="shadowBlurOuter1"></feGaussianBlur>
            <feColorMatrix values="0 0 0 0 0   0 0 0 0 0   0 0 0 0 0  0 0 0 0.321161685 0" type="matrix" in="shadowBlurOuter1"></feColorMatrix>
        </filter>
        <path d="M638.62207,464.109375 C638.62207,472.73572 634.611033,478.839175 628.588867,482.419922 L623.461914,485.59375 C622.810869,485.919272 622.485352,486.570308 622.485352,487.546875 C622.485352,488.686204 623.868801,489.988274 626.635742,491.453125 C633.634475,495.522156 637.133789,502.195266 637.133789,511.472656 C637.133789,520.587285 633.146199,527.504534 625.170898,532.224609 C623.217764,533.526699 622.159832,534.421873 621.99707,534.910156 C621.99707,536.375007 623.543279,537.921216 626.635742,539.548828 C633.634475,543.129575 637.133789,549.639927 637.133789,559.080078 C637.133789,567.706423 634.122751,573.809878 628.100586,577.390625 C624.031555,579.994805 621.99707,581.703772 621.99707,582.517578 C621.99707,583.494146 622.322588,584.307939 622.973633,584.958984 L628.588867,588.621094 C634.28551,592.201841 637.133789,597.979778 637.133789,605.955078 C637.133789,615.883513 632.902061,622.882141 624.438477,626.951172 C620.532207,628.904307 614.265994,629.880859 605.639648,629.880859 C586.922107,629.880859 577.563477,621.905679 577.563477,605.955078 C577.563477,596.677688 581.225549,590.004578 588.549805,585.935547 C591.479507,584.796218 592.944336,583.819666 592.944336,583.005859 C592.944336,582.029292 590.462264,579.832048 585.498047,576.414062 C580.533829,572.996077 578.051758,567.21814 578.051758,559.080078 C578.051758,549.314404 581.225554,542.804053 587.573242,539.548828 C591.31675,537.595693 593.269856,536.212244 593.432617,535.398438 C593.432617,534.910154 590.991235,532.957048 586.108398,529.539062 C580.737278,524.818987 578.051758,518.634153 578.051758,510.984375 C578.051758,502.683552 580.900037,496.661477 586.59668,492.917969 C588.549814,491.615879 589.526367,490.476567 589.526367,489.5 C589.526367,487.872388 589.038091,487.058594 588.061523,487.058594 L553.637695,487.058594 C547.452769,487.058594 542.041039,484.779971 537.402344,480.222656 C532.763649,475.665342 530.444336,470.294302 530.444336,464.109375 C530.444336,454.506462 534.431926,447.507834 542.407227,443.113281 C546.639019,440.671863 553.474888,439.451172 562.915039,439.451172 L582.93457,439.451172 C582.771809,439.451172 583.9925,439.613931 586.59668,439.939453 C588.875337,439.939453 590.014648,439.288418 590.014648,437.986328 C589.851887,437.660806 589.689128,437.335288 589.526367,437.009766 L583.422852,430.90625 C580.167627,427.651025 578.540039,422.686882 578.540039,416.013672 C578.540039,400.063071 588.224187,392.087891 607.592773,392.087891 C627.612405,392.087891 637.62207,400.22583 637.62207,416.501953 C637.62207,425.453821 633.390342,432.28969 624.926758,437.009766 C623.624668,437.823572 622.810874,438.800125 622.485352,439.939453 C622.485352,440.753259 624.845354,442.787744 629.56543,446.042969 C634.93655,448.972671 637.62207,454.994746 637.62207,464.109375 L638.62207,464.109375 Z" id="path-15"></path>
        <filter x="-50%" y="-50%" width="200%" height="200%" filterUnits="objectBoundingBox" id="filter-16">
            <feMorphology radius="0.5" operator="dilate" in="SourceAlpha" result="shadowSpreadOuter1"></feMorphology>
            <feOffset dx="0" dy="0" in="shadowSpreadOuter1" result="shadowOffsetOuter1"></feOffset>
            <feGaussianBlur stdDeviation="25" in="shadowOffsetOuter1" result="shadowBlurOuter1"></feGaussianBlur>
            <feColorMatrix values="0 0 0 0 0   0 0 0 0 0   0 0 0 0 0  0 0 0 0.321161685 0" type="matrix" in="shadowBlurOuter1"></feColorMatrix>
        </filter>
        <path d="M187.915039,486.570312 C168.546453,486.570312 158.862305,478.513752 158.862305,462.400391 C158.862305,446.44979 168.220935,438.474609 186.938477,438.474609 C198.494524,438.474609 206.713843,440.712543 211.59668,445.188477 C216.479517,449.66441 218.920898,455.07614 218.920898,461.423828 C218.920898,478.188235 208.585715,486.570312 187.915039,486.570312 Z" id="path-17"></path>
        <filter x="-50%" y="-50%" width="200%" height="200%" filterUnits="objectBoundingBox" id="filter-18">
            <feMorphology radius="0.5" operator="dilate" in="SourceAlpha" result="shadowSpreadOuter1"></feMorphology>
            <feOffset dx="0" dy="0" in="shadowSpreadOuter1" result="shadowOffsetOuter1"></feOffset>
            <feGaussianBlur stdDeviation="25" in="shadowOffsetOuter1" result="shadowBlurOuter1"></feGaussianBlur>
            <feColorMatrix values="0 0 0 0 0   0 0 0 0 0   0 0 0 0 0  0 0 0 0.321161685 0" type="matrix" in="shadowBlurOuter1"></feColorMatrix>
        </filter>
    </defs>
    <g id="Page-1" stroke="none" stroke-width="1" fill="none" fill-rule="evenodd">
        <g id="1024">
            <rect id="Rectangle-1" fill="#FFFFFF" x="0" y="0" width="1024" height="1024"></rect>
            <polygon id="Path3" fill="#F0F0F0" points="343 972.959092 426.394896 972.959092 604.742285 330 521.347389 330"></polygon>
            <polygon id="Path3" fill="#F0F0F0" points="749 691.959092 832.394896 691.959092 1010.74229 49 927.347389 49"></polygon>
            <polygon id="Path4" fill="#F0F0F0" points="767.474698 330.146484 684.079802 330.146484 585.526392 686.93666 668.921288 686.93666"></polygon>
            <polygon id="Path4" fill="#F0F0F0" points="437.474698 330 354.079802 330 255.526392 686.790176 338.921288 686.790176"></polygon>
            <polygon id="Path3" fill="#F0F0F0" points="89 691.959092 172.394896 691.959092 350.742285 49 267.347389 49"></polygon>
            <g id="Path2">
                <use fill="black" fill-opacity="1" filter="url(#filter-2)" xlink:href="#path-1"></use>
                <use fill="#333333" fill-rule="evenodd" xlink:href="#path-1"></use>
                <use fill="black" fill-opacity="1" xlink:href="#path-1"></use>
            </g>
            <g id="Path2">
                <use fill="black" fill-opacity="1" filter="url(#filter-4)" xlink:href="#path-3"></use>
                <use fill="#333333" fill-rule="evenodd" xlink:href="#path-3"></use>
                <use fill="black" fill-opacity="1" xlink:href="#path-3"></use>
            </g>
            <g id="Path2.5">
                <use fill="black" fill-opacity="1" filter="url(#filter-6)" xlink:href="#path-5"></use>
                <use fill="#333333" fill-rule="evenodd" xlink:href="#path-5"></use>
                <use fill="black" fill-opacity="1" xlink:href="#path-5"></use>
            </g>
            <g id="Path2.5">
                <use fill="black" fill-opacity="1" filter="url(#filter-8)" xlink:href="#path-7"></use>
                <use fill="#333333" fill-rule="evenodd" xlink:href="#path-7"></use>
                <use fill="black" fill-opacity="1" xlink:href="#path-7"></use>
            </g>
            <g id="Path2">
                <use fill="black" fill-opacity="1" filter="url(#filter-10)" xlink:href="#path-9"></use>
                <use fill="#333333" fill-rule="evenodd" xlink:href="#path-9"></use>
                <use fill="black" fill-opacity="1" xlink:href="#path-9"></use>
            </g>
            <g id="Path1.5">
                <use fill="black" fill-opacity="1" filter="url(#filter-12)" xlink:href="#path-11"></use>
                <use fill="#333333" fill-rule="evenodd" xlink:href="#path-11"></use>
                <use fill="black" fill-opacity="1" xlink:href="#path-11"></use>
            </g>
            <g id="Path1.5">
                <use fill="black" fill-opacity="1" filter="url(#filter-14)" xlink:href="#path-13"></use>
                <use fill="#333333" fill-rule="evenodd" xlink:href="#path-13"></use>
                <use fill="black" fill-opacity="1" xlink:href="#path-13"></use>
            </g>
            <g id="Path1">
                <use fill="black" fill-opacity="1" filter="url(#filter-16)" xlink:href="#path-15"></use>
                <use fill="#333333" fill-rule="evenodd" xlink:href="#path-15"></use>
                <use fill="black" fill-opacity="1" xlink:href="#path-15"></use>
            </g>
            <g id="Path1">
                <use fill="black" fill-opacity="1" filter="url(#filter-18)" xlink:href="#path-17"></use>
                <use fill="#333333" fill-rule="evenodd" xlink:href="#path-17"></use>
                <use fill="black" fill-opacity="1" xlink:href="#path-17"></use>
            </g>
        </g>
    </g>
</svg>