<svg xmlns="http://www.w3.org/2000/svg" version="1" x="0" y="0" width="268.2" height="336.2" viewBox="-25 -25 293.2 361.2" enable-background="new 0 0 268.223 336.246" xml:space="preserve"><path fill-rule="evenodd" clip-rule="evenodd" fill="#6A005F" d="M0.1 0C17.1 9.9 39.5 16.9 66.4 17.2c27.5 0.3 50.8-5.1 67.7-15.7 17 10.6 40.6 16.1 67.8 15.7 26.3-0.3 49.5-7.2 66.3-17 0.3 39.5-0.6 77.2-0.6 116.6 0 39.1 2.1 79.6-7.9 109.5 -4.9 14.7-12.2 26.9-20.5 38.5 -8.1 11.4-18.2 21.4-29.1 29.7 -11.3 8.6-24.3 14.7-37.6 21.4 -11.4 5.7-22.8 11.6-33.8 17.6 -1.5 0.9-3.4 1.4-4.5 2.9 -6-4-12.4-7.2-18.9-10.6 -6.5-3.3-13-6.7-19.5-10.1 -6.7-3.4-13.4-6.4-19.8-9.7 -6.4-3.4-12.1-7.3-17.8-11.6 -22.3-17-39.4-39-49.6-68.3 -5.2-15.1-6.7-32.4-7.6-51.2C0.1 156.2 0.6 136.5 0.6 117.3c0-39.1-0.6-77.5-0.6-116.9C0 0.2 0 0 0.1 0zM127.3 14c-23.4 10.3-60.3 13.3-90.2 7.3 -9.4-1.9-17.9-4.4-25.3-7.8 -1-0.5-2.1-1.3-3.3-1.2 -0.3 36.4 0.6 74.1 0.6 109.1 0 18.2-0.9 36.8-0.2 54.2 0.8 17.3 2.7 33.7 7.5 47.7 4.7 13.8 10.9 25.7 18.7 36.6 11.6 16.2 25.6 29.7 43.4 39.3 6 3.2 12.3 6 18.7 9 12.5 5.8 24.9 11.9 37.3 18 12.3-6.1 24.9-12 37.2-18 6.3-3.1 12.7-5.7 18.6-8.9 11.8-6.3 21.9-14.7 30.8-24.2 13.4-14.1 24.3-31.6 30.9-51.9 9.3-28.6 7.3-64.8 7.3-101.4 0-36.9 0.1-73.2 0.4-109.5 -1.1 0-2.2 0.7-3.3 1.2 -7.7 3.4-16 6.2-25.2 8 -21.7 4.2-48.4 3.6-68.8-0.9 -10.5-2.3-19.9-5.8-28.1-10C132.5 11.9 130 12.9 127.3 14zM137.1 25.5c11.5 1.3 20.2 7.3 25.4 15.8 0.7 1.1 1.8 2.9 1.7 3.8 -0.2 0.9-0.9 1.7-1.7 1.6 -1.1-0.1-1.5-1.6-2.3-3 -4.4-7.7-11.5-13-21.7-14.8 0.5 2.3 1.5 4.6 2.4 7 0.9 2.4 1.8 4.9 2.6 7.2 0.4 0.4-0.1 1 0 1.6 1.8-0.1 3.9-0.1 3.6 2 -0.4 2.6-8.3 0.6-11.2 1.3 -0.3 2-0.1 4.7-0.1 7 1.6 1 9.2-0.8 10.7 0.3 0.5 0.3 0.6 1.2 0.6 1.7 -0.4 2.9-8.1 0.5-11.2 1.3 -0.5 2.4 0.7 5.7-1.7 5.9 -2.3 0.1-1.6-3-1.7-5.8 -2.9-1-10.7 1.5-11.3-1.2 -0.8-3.9 8.4-1.1 11.2-2.2 0.3-1.9 0.3-4.9 0-6.9 -2.6-1-10.6 1.3-11.2-1.3 -0.4-2 1.6-2.3 3.5-2.1 0.4-0.4-0.2-0.9 0-1.4 1.9-4.6 3.4-9.6 5.3-14.2 -12.3 1.7-20.1 9.1-23.9 19.6 1.3-0.1 3.4-0.8 6-1.3 2.8-0.5 8.5-1.8 6.9 2.2 -2.3 0.7-4.9 0.7-7.3 1.2 -2.3 0.5-4.5 1.3-6.4 2 -0.4 0.7-0.5 1.7-0.6 2.7 2.1-0.3 4.3-1.2 7-1.7 2-0.3 7.9-1.8 7.3 1.4 -0.3 1.4-2 1.2-3.3 1.3 -3.8 0.2-8.6 1.5-11.1 2.8 -0.1 0.5 0 1.7 0.2 2.3 2.3-0.6 4-1.1 7-1.6 1.9-0.2 6.3-1.5 6.8 0.6 0.6 3-4.6 2.1-7.2 2.6 -2.7 0.5-4.4 1.3-6 1.8 0.6 1.4 0.6 3.2-0.7 3.5 -2.9 0.6-3.2-6.1-3.3-8.9 -0.1-4.2 0.5-7.9 1.3-10.8 3.8-13 13.9-21.3 28.7-23.5 1.1-1.6 1.1-4.7 3.1-4.5C136.2 21.1 136 24.1 137.1 25.5zM136.1 32.2c-0.5-1.2-1-3.9-2.3-3.7 -2.4 5-4 10.8-6.2 16.2 1.2 0.1 3.5-0.1 4.7 0 -0.9-4.8 4.6-5.1 3.5 0 1.2 0 3.6 0 4.9 0C139.3 41 137.5 36.3 136.1 32.2zM66.5 38c0.7 0.6-0.2 1.4 0.1 2 2.1-0.4 4.7 1.2 4.9 2.3 0.3 1.4-1.3 3-0.9 4.9 3.5 2.2 4.4 7.1 8.4 8.9 1.7 3.3 2.9 8.2 2.1 12.7 -0.6 3.4-4 3.8-3.3 8.3 0.3 1.9 1.5 5.9 2.9 6.5 0.9 0.4 2.1-0.1 3 0.6 0.7 0.9 0.4 2.8-0.2 3.6 -2.8 0.5-3.8 3.4-7.2 2.3 -1.3-0.5-3.5-1.9-4.1-3 -0.4-0.7-0.4-1.7-0.7-2.4 -0.7-1.6-2-2.6-2.7-3.8 -2.1 0.6-8.5-0.4-7.4 2.9 0.5 1.5 5.5 0.7 3.9 4.6 -0.6 1.3-4.9 3.2-6.6 3.6 -0.6 0.1-1.6 0.2-2 0.1 -0.5-0.1-1-0.6-1.7-0.7 -1.4-0.3-3.2 0.3-4.7 0 -0.9-0.2-3.4-1.9-4.3-2.7 -0.6-0.5-1.8-2-2-2.6 -0.7-1.6-0.2-2.9-1.9-3.6 -0.7-0.3-1.7-0.2-2.5-0.4 -1.5-0.4-3.2-1.6-4.4-0.7 -1.6 1.7 0.9 2.5 1.7 4 0.8 1.4 0.3 2.5 0.5 4.6 -0.5 0.7-1.6 1.9-2.9 2.2 -1.7 0.3-4.1-1-6.5-1.6 -1.6-0.4-3.9-0.4-4.3-2 -0.2-1 0.8-1.6 1-2.5 0.3-1.1-0.3-2 0.4-3 -1.1-1.7-0.6-4.3-0.7-7.3 -0.1-3.3-0.1-5.5 0.7-7.9 0.3-0.9 0.3-1.8 0.6-2.3 0.4-1 3.4-3.4 4.6-4 2.7-1.5 7.2-2.7 12-2 1 0.1 1.9 1 2.9 1.1 1.8 0.3 4.3-0.2 6.2 0 0.6-0.3 1.1-0.7 1.4-1.3 0.2-3.1-1.6-4.3-2.4-6.5 0.4-3.1-0.5-6.7 0.6-9.7 0.3-0.8 1.7-3.2 2.5-4.1 0.7-0.8 2.2-2 3.1-2.2 1.6-0.3 4.4 0.6 6 1.2C63.3 37.5 65.3 37.5 66.5 38zM58.1 44.5c1.4 0.3 2-1.4 2.6-2.3 -0.4-0.7-0.2-2-1.2-2C59.6 42.2 58.6 43.1 58.1 44.5zM52.8 43.8c0.2 0.2 0.6 0.2 1 0.2 0.4-0.9 0.5-2 1-2.7C53.5 40.9 52.7 42.8 52.8 43.8zM61.8 44.3C60.5 45.3 58 46.3 58.8 48.5c0.1 0 0.3 0 0.3 0.1 1.6-0.5 2.1-2.2 3.3-3.3 1-0.9 2.9-1.4 2.7-3.4C63.4 41.3 62.8 43.4 61.8 44.3zM61.8 51c0 0.1 0.3 0.3 0.3 0.4 0.5 0.3 0.9-0.3 1.5-0.4 1.2-0.1 2 0.6 2.7 0.6 0.7-0.7 0.1-1.9-0.7-2C64.7 51.1 61.3 48.3 61.8 51zM71 49.6c-0.7-0.1-1 0.7-1 1.3 0.1 1 1.9 2.1 2.9 2C72.5 52.3 71.7 49.7 71 49.6zM58.5 51.7c-1.2 0.5-1.8 1.5-2.1 2.8 1 0.4 1.1-1 2-1.1 1 0.5 1 2 2 2.4 0.3 0.4 1.5-0.2 1.6 0.4 0 0.8-1.2 0.8-2 1.2 -0.9 0.4-2.4 1.7-3.7 2.5 -2.3 1.3-5.3 3-1.9 4.5 0.4-0.3 0-1 0.2-1.4 0.3-0.7 3.1-2.7 3.4-2.7 0.6-0.1 1.2 0.3 1.8 0.2 1.5-0.2 1.8-1.6 3.1-2.2 0.8 0.2 1.7 0.3 2.8 0.3 1.3 0.5 0.6 2.9 2.1 3.2 0.7-1 0.2-2.3 1-3.2 -0.1-0.9-1-1.2-0.9-2.3 0.2-0.6 0.9-0.7 1.4-0.9 1.4 1 1.1 3.6 2.4 4.6 1.2-0.7 1.5-3.3 0.7-4.6 -0.6-1-2.6-1.4-3-2.2 -3.3 0-5.9 0.8-8.5 1.6C59.9 54.2 59.5 52.7 58.5 51.7zM75 60.9c1.1-0.6 0.5-2.8-0.7-2.9C73.8 58.9 73.8 60.9 75 60.9zM61.5 62.2c0.3 0.8 1.5 0.6 1.7 1.4 -0.4 1.6 0.9 2.4 1.2 3.8 -0.9 1.2-2.2 0.1-2.6-0.7 -0.6 0.1-1 0.4-1 1.1 3.3 0.2 1.5 4-0.6 4.7 -0.6 0.3-1.5 0-2.2 0.2 -0.8 0.2-1.5 1.1-2.4 1.4 -1.4 0.5-2.6 0.1-3.4 0.7 -0.4 1.7-0.2 3.8 1 3.7 1.2-0.1 1.2-2.5 2.4-2.9 1.8 0.3 1.6-1.1 2.6-1.4 0.5-0.2 1.1 0.2 1.8 0 2-0.6 2.5-3.1 3.7-4.6 3.2 0.4 4-2.4 4.1-4.7 -1.8 0.4-4 0.6-4.3-1 -0.2-1.1 0.9-1.6 1.2-2.7C64 59.7 61.7 60.9 61.5 62.2zM34.9 62.6c-0.6 0-0.5-0.8-1.3-0.6 0.1 1.1-0.9 1.1-1.2 1.7 0.2 0.8 1.2 0.8 1.4 1.5 2.3-0.1 2.9-1.7 4.8-2C38.3 60.5 36.3 61.8 34.9 62.6zM41.9 61.6c-0.5 0.8 0.1 2.2 0.8 2.6C44.1 63.6 43.6 61.4 41.9 61.6zM49.3 67.5c0.6-0.7 0.3-2.6-0.7-2.6C48.2 65.5 48 67.8 49.3 67.5zM26.2 69c0.9 0.5 3 0.7 3.7-0.2 -0.5-1-0.5-1.8-0.4-2.7C28.1 66.7 26.7 67.4 26.2 69zM50 69.6c1.2 0.2 3.5 0.5 3.8-0.7C53.2 67.5 49.8 67.6 50 69.6zM33.8 72.4c-0.6 0.1-0.4-0.8-1-0.7 -0.8 0-0.8 0.9-1.6 1 -0.3-0.1-0.5-0.3-1-0.3 -0.3 0.3-0.8 0.5-0.7 1.1 0.7-0.3 1-0.2 1.6 0.2 0.2-0.3 0.2-0.8 0.7-0.8 -0.1 2.1-1.4 4.3-3.9 4.5 -0.2 1.1-1 1.7-1.7 2.3 -0.6 2.6 0.2 5.1 2.7 5.1 0.2-0.5 0.1-1.2 0.2-1.9 -0.7-0.7-1.4-1.4-1.1-3.1 0.4-0.3 0.9-0.6 1.7-0.6 1.1-1 2-2.2 2.7-3.7 -0.5-1.6 1.2-2.7 1.9-1.4 0 0.4-0.5 1.2 0.3 1.1 0.6-0.2 0-0.6 0-1 0.7-0.9 2.3-1 2.7-2.2C36.2 70.3 35 71.9 33.8 72.4zM26.9 75c0.8-0.7 1.1-2.2 0.6-3.3C26.1 71.7 25.8 74.4 26.9 75zM45.3 75.4c0.1 0.5 1.2 0.3 1.6 0.2 0-0.2 0.1-0.3 0.2-0.4 -0.2-0.3-0.6-0.6-1-0.7C46.2 75.1 45.3 74.8 45.3 75.4zM57.5 77.1c-0.6 0.3-1.1 0.4-1.4 1 -0.2 1 0.4 2.7-0.5 3 -1.4-1-2.4-0.2-3.3 0.7 -0.7-0.1-0.9-0.8-2-0.6 -0.1 0.5-0.5 2.2 0.3 2.3 0.8-0.2-0.4-1.5 0.6-1.5 0.3 0.7 0.7 1.1 1.1 1.6 -0.1 1.1-0.4 3.2 0.2 4 1.7-0.5 0.1-4.3 2.2-4.5 0.7 0.4 0.5 1.7 0.6 2.7 0.6 0.3 1.4 1.2 2.4 1.3 1.2 0.1 3.3-0.3 3.7-1.1 -0.7-0.6-2-0.6-2.6-1.3 -0.2-0.2-0.2-0.7-0.2-1.1 -1.4-1-2.1-3.3-1.4-5.5 0.2-0.7 1.6-1.7 0.4-2.4C57.4 76.1 57.5 76.7 57.5 77.1zM30.8 85.4c0 0.1 0 0.3 0 0.4 1.3-0.1 1.6 1.4 2.6 1C33.1 85.9 31.9 85.2 30.8 85.4zM236 81.3c-1.4-0.9-3.2 0.4-4.6 0.7 -1.7 0.4-3.3 0.4-4 1.9 -0.3 0.7-0.2 1.5-0.4 2.1 -1.2 2.8-3.9 3.5-6 5.3 -1.4 0.3-3.1-0.3-4.9 0 -1.2 0.2-1.7 1-3.6 0.6 -2.7-0.5-6.3-2.2-6.9-3.7 -1.1-2.9 2-3.3 3.9-4.1 0.5-2.9-1.6-2.4-4-2.7 -1.2-0.2-2.5-0.6-3.2-0.5 -0.6 0.2-2.4 2.4-3 3.8 -0.3 0.7-0.3 1.6-0.6 2.3 -0.9 1.7-4.1 3.5-6 3.4 -2.4-0.1-2.8-2.2-5.5-2.5 -0.6-1.2-0.8-2.9 0-3.6 0.7-0.6 2.5-0.3 3.3-0.9 1-0.7 3.2-6.4 2.4-9.1 -0.5-1.8-2.8-3.3-3.2-4.7 -0.1-0.5-0.2-1.7-0.2-2.5 0-3.5 0.1-8.2 2.2-10.7 0.9-1.1 2.4-1.6 3.5-2.7 1.9-2.1 2.2-5.4 5-6.1 -0.1-2-0.6-3.4-1-5.1 1.1-1.3 2.2-2.6 4.9-2.3 0.5-0.6-0.6-1.4 0.1-2 1.1-0.4 3.2-0.5 4 0.2 1.5-0.6 3.2-0.9 4.9-1.2 3-0.5 4.6 2.5 5.7 4.5 0.8 1.4 1.5 2.2 1.7 4.4 0.1 1 0 2.3 0 3.6 0 1.1 0.1 2.5 0 3.3 -0.5 2.8-4.6 6-1 7.9 1.9-0.2 4.1 0.4 6.1 0 1.1-0.2 2.1-1 2.7-1.1 2.2-0.4 4.8-0.2 6.5 0 4.2 0.6 7.5 3.3 10.2 5.7 0.1 1.7 1.3 3.1 1.6 5 0.4 3 0.3 7.7-0.1 10.6 -0.2 1.5-0.8 2.9-0.3 5 0.2 1 1.1 1.5 1 2.3 -0.1 1.9-2.5 1.9-4.6 2.4 -3.6 1-7.4 2.8-9-0.8 0.1-2.1-0.2-3.2 0.6-4.6C235.1 83.7 237.2 83.3 236 81.3zM212.9 44.5c0.1-0.9-1-1.1-1.3-2 -0.3-0.8 0.3-1.8-0.5-2.5C209.4 41.3 210.9 44.8 212.9 44.5zM217.1 44c0.5 0.1 0.9-0.1 1.1-0.3 -0.2-1.3-0.7-2.2-1.8-2.6C216.1 42 217 43 217.1 44zM205.8 42c0.1 2.4 2.2 2.6 3.5 3.9 1 1.1 1.3 2.5 2.6 2.7 1.5-1.8-1.3-3.8-2.8-4.4C208.3 43.2 207.5 41.5 205.8 42zM201 50.6c0-0.3-0.5-1.1-1.1-1 -0.6 0.1-1.8 3-1.8 3.3C199.2 53 201.1 51.5 201 50.6zM207 50.2c-0.7 0.1-1.4-0.7-2-0.6 -0.6 0.2-1.4 1.8-0.3 2 0.6-0.4 3-0.9 3.9 0 0.9-0.6 0.5-1.5-0.3-2C207.7 49.6 207.7 50.1 207 50.2zM212.7 51.7c-1.4 0.6-1.5 2.6-2.9 3.3 -2.4-1-5.1-1.6-8.4-1.6 -0.4 1-2.8 1.4-3.1 2.7 -0.4 1.4 0 3.2 0.7 4.1 1.7-0.7 1.9-6.8 4.2-3.4 -0.2 0.8-0.9 1.3-1 2.2 1 0.6 0.4 2 0.9 3 1.8 0 1-2.5 2.2-3 0.9-0.2 2.1-0.2 3-0.5 1.4 1 2.4 2.8 4.8 1.9 1.3 1.3 3.7 1.8 3.5 4.1 1.1 0 1.8-1.2 1.7-1.8 -0.1-1.4-3-2.5-4.4-3.3 -0.8-0.5-1.5-1.2-2.3-1.6 -1-0.5-2.3-0.4-2.4-1.4 0.1-0.5 1-0.2 1.4-0.2 1.1-0.5 1.1-2.1 2.2-2.6 0.7 0.1 1.1 1.4 1.8 1.1C214.5 53.6 213.6 52.3 212.7 51.7zM195.3 60.2c1 1.8 2.1-0.8 1.4-2.1C195.6 58.1 195.5 59.2 195.3 60.2zM206.1 61.2c0.4 1 1.2 1.6 1.2 2.8 -0.6 1.6-3 0.9-4.4 1 0.3 2 0.7 5.1 4.2 4.5 1.1 1.7 2 3.6 3.8 4.7 2.5-1 2.3 1.5 4.4 1.4 1.3 0.4 1.2 2.8 2.4 2.9 1.4 0.1 1.5-2.5 1-3.9 -1.2-0.5-2.3-0.1-3.6-0.6 -0.6-0.2-1.1-1.1-1.7-1.3 -1-0.3-2 0.1-2.9-0.3 -1.2-0.5-2.2-2.3-2.2-3.9 0.3-0.7 1.6-0.3 1.8-1.2 -0.1-0.5-0.4-0.7-0.9-0.8 -0.5 0.8-1.9 2-2.7 0.6 0.6-1.2 1.5-1.9 1.3-3.9 0.4-0.5 1.4-0.3 1.6-1.1C209.3 60.8 206.9 59.9 206.1 61.2zM232.1 63.1c1.9 0.4 2.7 2 4.9 2.1 0.2-0.7 1.4-0.7 1.5-1.5 -0.4-0.6-1.4-0.6-1.3-1.7 -0.9-0.2-0.6 0.7-1.4 0.6C234.5 61.6 232.7 60.8 232.1 63.1zM228.3 64.2c0.6-0.5 1.3-1.5 0.9-2.6C227.3 61.4 226.7 63.8 228.3 64.2zM222 64.9c-0.6 0.4-1.1 1.9-0.4 2.6C223 67.8 223.1 65.1 222 64.9zM240.9 69c0.9 0.6 2.6 0.4 3.8 0.1 -0.4-1.7-1.8-2.4-3.3-3C241.4 67 241.3 67.9 240.9 69zM217.2 69.2c0.5 0.8 2.6 0.7 3.6 0.4C221.2 67.5 217.3 67.4 217.2 69.2zM233.6 72.1c0.7 0.9 2 1.2 2.7 2 -0.1 0.3-0.3 0.7 0 1 0.9-0.1 0.4-0.7 0.3-1.3 2.2-1.6 1.9 2.2 2.8 3.6 0.6 0.9 1.4 1 1.8 1.7 0.5 0.1 1.1 0.2 1.6 0.3 1.2 2.2-2 3.2-0.7 5.3 3.2 0.4 3.7-5.3 1.3-6.2 0-0.5-0.2-0.7-0.3-1 -2.4-0.3-4.1-2.8-3.9-4.7 0.5 1.1 1.4 0.2 2.3 0.7 -0.1-0.6-0.5-0.9-1-1.1 -0.4 0-0.6 0.3-1 0.3 -0.4-0.3-0.6-0.8-1.3-1 -0.6 0-0.5 0.8-1.3 0.7C236 71.6 234.4 70.4 233.6 72.1zM244.2 74.9c0.8-0.8 0.5-3.1-0.7-3.2C242.8 72.6 243 74.5 244.2 74.9zM224 75.4c0.3 0.3 0.9 0.3 1.6 0.3 0-0.2 0-0.3 0.2-0.5C225.2 74.9 224 74 224 75.4zM213.8 78.4c-0.3 1.4 0 2.5-0.2 4 -0.7 0.7-1.5 1.2-1.4 2.4 -0.7 0.7-2.3 0.6-2.7 1.6 1.8 1 5 1.1 6.2-0.5 0.2-1-0.2-2.6 0.9-2.7 1.8 0.4 0.2 4.1 2 4.5 0.5-0.9 0.3-3.2 0-4 0.7-0.4 0.7-1.4 1.6-1.6 0.1 0.5-0.3 1.5 0.3 1.5 0.6-0.3 0.5-1.8 0.2-2.3 -1.2-0.3-1.2 0.6-2.2 0.6 -0.5-1.4-2-1.5-3.3-0.7 -0.5-0.9-0.2-1.8-0.3-3.1 -1.1-0.4-1.4-1.5-1.8-2.2C212.5 77 213.4 77.8 213.8 78.4zM237.6 87c1-0.3 1.8-0.9 2.5-1.4C239.2 85 237.6 85.8 237.6 87zM162.3 49c0.9-0.1 1.1-1.1 2.3-1 1.8 0.1 2.2 5 2.4 7.4 0.3 4.3-0.1 15.7-4.3 11.9 -0.1-0.9 0.1-1.6 0.3-2.2 -2-1.2-6.1-2.1-9.6-2.4 -1.8-0.1-4.3 0.1-3.6-2.3 0.6-1.9 5.1-0.7 6.9-0.5 2.9 0.5 4.5 1 6.7 1.6 0.5-0.4 0.2-1.5 0.5-2.2 -1.7-1.2-7.3-2.7-11-3 -1.8-0.1-3.6 0.1-3.6-1.7 0-0.8 0.6-1.1 1.2-1.6 5.2 0.1 9.3 1.1 13.2 2.4 1.1-3.6-3.7-4.1-6.3-4.7 -2.7-0.6-5.4-0.7-7.4-1 -1.2-0.6-1.1-3 0.7-3C153.9 46.8 160.2 48 162.3 49zM140.5 89.8c-3.2-4.2 7-3.7 8.3-5.9 -1.4-0.7-3.4-1.1-5.3-1.3 -1.9-0.3-3.9-0.5-5.7-0.5 0.1 2.9 1.4 7.8-1.7 8.6 -2.2 0.6-8.9-0.1-9.2-1.6 -0.7-3.5 5.1-1.2 7.7-1.6 0.7-1.5 0.1-4.1-0.4-5.5 -5.1-0.4-10.1 0.6-14.3 1.5 1.3 2 5 1.5 5.3 3.4 0.7 4.3-6.7-0.1-7.7-0.7 -4-2.3-7-5-9.9-8.9 -1.1-1.5-3.5-4.4-3.3-6 0.2-1.5 3.5-2.4 5.7-3 12.9-3.5 27.8-4.8 42.1-1.9 1.9 0.4 4.2 1.1 6.4 1.9 1.9 0.6 5.4 1.4 5.6 2.7 0.3 1.8-3 6-3.8 7 -3.3 4.4-6.6 7.1-11.7 9.4C146.3 88.6 143.6 89.8 140.5 89.8zM108.2 72.4c1.9 3.7 4.7 6.5 7.8 9 2.1-0.7 4.3-1.4 6.8-1.7 -1-0.9-2.2-1.4-3.5-2.4 -1-0.7-2.8-1.8-2.7-3.3 0.1-1.6 3.5-2.4 5.7-2.9 7.5-1.7 16.4-1.5 23.5 0.1 2.2 0.5 6 1.1 6 2.9 0 1-1.7 2.5-2.6 3.1 -1.2 1-2.6 1.1-3.4 2.4 2.7 0.2 4.7 1 6.9 1.7 3.2-2.3 5.7-5.3 7.4-9C146.5 66.7 122.1 67.1 108.2 72.4zM121.7 74.9c5.6 4.9 19.2 4.9 24.8 0C139.9 72.7 128.4 72.7 121.7 74.9zM38.9 174c0-0.3-0.1-0.7-0.3-1.3 -0.2-0.6-0.3-1-0.5-1.1 -0.2-0.4-0.7-0.6-1.4-0.7 -0.7-0.1-1.5-0.2-2.6-0.2H18.9v-1.3l17-12.6H25.2c-1.2 0-2.1 0.1-2.7 0.2 -0.7 0.1-1.1 0.3-1.4 0.7 -0.2 0.2-0.4 0.7-0.6 1.4 -0.2 0.7-0.3 1.1-0.3 1.4h-1v-8.5h1c0.1 0.3 0.1 0.7 0.3 1.3 0.2 0.6 0.3 1 0.4 1.2 0.3 0.4 0.7 0.6 1.2 0.7 0.6 0.1 1.5 0.2 2.9 0.2h10.2c0.4 0 0.9-0.1 1.3-0.3 0.5-0.2 0.8-0.3 1.1-0.6 0.3-0.4 0.6-0.9 0.8-1.4 0.2-0.6 0.3-1.1 0.4-1.5h1v6l-15.9 11.7h9.9c1.2 0 2.2 0 2.8-0.2 0.7-0.1 1.1-0.4 1.3-0.7 0.2-0.3 0.4-0.7 0.5-1.3s0.3-1.1 0.3-1.4h1v8.5H38.9zM20.8 197.7l-0.9-8.6 1-0.1c0.1 0.7 0.3 1.4 0.5 1.9 0.2 0.5 0.4 0.7 0.6 0.7 0.1 0 0.2 0 0.3-0.1 0.1 0 0.2-0.1 0.3-0.1l4.5-2.2 -0.7-7.3c-0.7-0.2-1.3-0.4-1.8-0.5 -0.5-0.1-1-0.3-1.4-0.3 -0.5-0.1-0.8-0.1-1.1-0.2 -0.3 0-0.5 0-0.6 0 -0.4 0.1-0.6 0.3-0.8 1 -0.1 0.6-0.2 1.3-0.2 2.1l-1 0.1 -0.8-7.8 1-0.1c0.1 0.2 0.1 0.6 0.3 1 0.1 0.3 0.3 0.6 0.5 0.9 0.3 0.4 0.6 0.6 0.9 0.9 0.3 0.2 0.7 0.3 1.3 0.5 2.7 0.8 5.7 1.6 9.1 2.6 3.4 0.9 6.3 1.7 9 2.5l0.1 1.1 -17.2 8.7c-0.3 0.1-0.7 0.3-0.9 0.6 -0.2 0.2-0.4 0.5-0.6 0.9 -0.1 0.2-0.2 0.5-0.2 0.9 -0.1 0.4-0.1 0.7-0.1 0.9L20.8 197.7zM28.4 188.6l7.7-3.9 -8.3-2.3L28.4 188.6zM45.5 219.4c-0.1-0.2-0.2-0.7-0.5-1.2 -0.3-0.5-0.5-0.9-0.7-1.1 -0.3-0.3-0.8-0.4-1.5-0.4 -0.7 0-1.6 0.2-2.6 0.4l-14.9 3.3 -0.3-1.2 13.9-16 -10.5 2.3c-1.2 0.2-2 0.5-2.6 0.8 -0.6 0.3-1 0.6-1.2 1 -0.2 0.3-0.3 0.8-0.3 1.5 -0.1 0.8-0.1 1.2 0 1.4l-1 0.3 -1.9-8.3 1-0.2c0.1 0.3 0.3 0.7 0.6 1.2 0.3 0.6 0.5 0.9 0.7 1 0.3 0.3 0.8 0.4 1.4 0.4 0.6 0 1.5-0.1 2.9-0.4l10-2.2c0.5-0.1 0.9-0.3 1.3-0.5 0.4-0.3 0.7-0.6 0.8-0.8 0.3-0.4 0.4-1 0.5-1.6 0.1-0.7 0.1-1.2 0-1.5l1-0.2 1.3 5.8 -13 14.9 9.6-2.2c1.2-0.3 2.1-0.5 2.7-0.8 0.6-0.3 1-0.6 1.1-0.9 0.1-0.3 0.2-0.8 0.2-1.4 0-0.6 0-1.1 0-1.4l1-0.3 1.8 8.3L45.5 219.4zM52 231.6c-0.2-0.2-0.4-0.5-0.6-0.8 -0.3-0.3-0.5-0.5-0.7-0.7 -0.3-0.2-0.6-0.4-0.8-0.3 -0.3 0-0.6 0.1-0.9 0.3l-10.7 6.1c-0.6 0.3-1.2 0.6-2 0.7 -0.7 0.1-1.5 0.1-2.2 0 -0.8-0.2-1.6-0.5-2.4-1 -0.7-0.5-1.3-1.3-1.8-2.1 -0.8-1.3-1.1-2.7-0.8-4 0.3-1.3 1.1-2.3 2.4-3.1 0.5-0.3 1.1-0.5 1.8-0.5 0.6 0.1 1.1 0.4 1.4 1 0.2 0.5 0.3 1 0.2 1.4 -0.1 0.5-0.4 0.9-0.8 1.1 -0.3 0.2-0.6 0.3-0.9 0.3 -0.3 0.1-0.6 0.1-0.9 0.1 -0.3 0-0.6 0-1 0 -0.3 0-0.7 0-0.9 0 -0.2 0.3-0.3 0.7-0.3 1.3 0 0.5 0.2 1 0.5 1.7 0.4 0.6 0.9 1 1.3 1.3 0.5 0.2 1.1 0.3 1.6 0.2 0.5-0.1 1.2-0.2 1.9-0.5 0.7-0.3 1.4-0.6 2.2-1.1l9.5-5.5c0.3-0.2 0.5-0.4 0.6-0.5 0.2-0.2 0.2-0.5 0.2-0.9 0-0.3-0.1-0.7-0.3-1.2 -0.2-0.4-0.3-0.7-0.5-1l0.9-0.5 4.6 7.9L52 231.6zM44.7 255.4l-5.7-7.4 0.8-0.6c0.2 0.2 0.5 0.5 0.8 0.9 0.3 0.3 0.6 0.6 0.8 0.7 0.3 0.2 0.6 0.2 0.8 0.2 0.3-0.1 0.6-0.2 0.9-0.4l12-9.2c0.3-0.2 0.5-0.4 0.6-0.6 0.1-0.2 0.1-0.5 0-1 -0.1-0.3-0.2-0.7-0.4-1.1 -0.2-0.4-0.4-0.7-0.5-1l0.8-0.6 5.7 7.4 -0.8 0.6c-0.2-0.2-0.4-0.5-0.7-0.8 -0.3-0.3-0.6-0.6-0.9-0.7 -0.3-0.2-0.6-0.3-0.9-0.2 -0.3 0.1-0.6 0.2-0.8 0.4l-11.9 9.2c-0.2 0.2-0.4 0.4-0.6 0.7 -0.1 0.3-0.1 0.6-0.1 1 0.1 0.2 0.2 0.5 0.4 0.9 0.2 0.5 0.4 0.8 0.6 1L44.7 255.4zM80.4 262.8c-0.2-0.2-0.6-0.4-1.1-0.7 -0.5-0.3-0.9-0.4-1.2-0.5 -0.4-0.1-0.9 0.1-1.5 0.5 -0.5 0.5-1.2 1-1.9 1.8l-10.5 11 -0.9-0.9 2.6-21 -7.4 7.7c-0.8 0.9-1.4 1.6-1.8 2.2 -0.3 0.6-0.5 1.1-0.4 1.5 0 0.4 0.2 0.8 0.6 1.4 0.4 0.6 0.6 1 0.8 1.2l-0.7 0.7 -6.2-5.9 0.7-0.7c0.2 0.2 0.6 0.4 1.1 0.7 0.6 0.3 1 0.5 1.2 0.5 0.5 0 0.9-0.1 1.4-0.5 0.5-0.3 1.2-0.9 2.1-1.9l7.1-7.4c0.3-0.3 0.5-0.7 0.7-1.1 0.2-0.4 0.3-0.8 0.2-1.2 0-0.5-0.2-1-0.5-1.6 -0.3-0.6-0.5-1-0.8-1.3l0.7-0.7 4.3 4.1 -2.4 19.5 6.8-7.1c0.8-0.9 1.4-1.6 1.8-2.2 0.3-0.6 0.4-1.1 0.4-1.4 -0.1-0.3-0.3-0.8-0.6-1.3 -0.3-0.5-0.6-0.9-0.8-1.2l0.7-0.7 6.1 5.8L80.4 262.8zM92.2 284.2c-0.2-0.1-0.5-0.2-0.9-0.4 -0.4-0.2-0.7-0.3-0.9-0.3 -0.4 0-0.6 0-0.9 0.2 -0.2 0.1-0.4 0.4-0.7 0.7l-0.9 1.3c-0.6 1-1.1 1.6-1.3 2 -0.2 0.4-0.4 0.6-0.5 0.8 -1.4-0.2-2.8-0.6-4-1 -1.2-0.5-2.4-1-3.4-1.7 -1.1-0.8-2-1.7-2.7-2.8 -0.8-1.1-1.2-2.3-1.5-3.5 -0.2-1.4-0.2-2.7 0.1-4.1 0.3-1.4 0.8-2.8 1.8-4.1 0.8-1.3 1.9-2.4 3.1-3.2 1.2-0.8 2.5-1.4 3.8-1.7 1.3-0.3 2.7-0.3 4 0 1.4 0.3 2.7 0.8 3.9 1.6 1 0.7 1.8 1.4 2.3 2.1 0.5 0.7 1 1.4 1.3 2.1l1-0.5 1 0.7 -4 6.1 -1-0.7c0.3-0.8 0.5-1.5 0.6-2.4 0.2-0.8 0.3-1.6 0.2-2.4 -0.1-0.8-0.3-1.5-0.6-2.2 -0.3-0.7-1-1.3-1.7-1.8 -0.9-0.6-1.8-0.9-2.7-1 -0.9-0.1-1.9 0-2.8 0.4 -1 0.3-1.9 0.9-2.8 1.8 -1 0.8-1.9 1.8-2.7 3 -0.7 1.1-1.3 2.2-1.7 3.4 -0.4 1.1-0.6 2.3-0.6 3.3 0 1 0.3 2.1 0.7 3 0.5 0.9 1.2 1.7 2.1 2.3 0.7 0.5 1.4 0.8 2.2 1 0.7 0.2 1.3 0.3 1.7 0.2 0.4-0.4 0.7-0.7 1-1.2 0.3-0.4 0.6-0.8 0.7-1.1l0.6-1c0.3-0.3 0.4-0.7 0.5-1 0.1-0.3 0.1-0.7-0.2-1 -0.2-0.3-0.5-0.7-0.9-1 -0.5-0.4-0.8-0.7-1-0.8l0.6-1 7.6 5.1L92.2 284.2zM144.3 287.6c-0.3 0-0.6 0.1-1.2 0.2 -0.5 0.1-1 0.2-1.3 0.5 -0.3 0.2-0.6 0.7-0.7 1.4 -0.1 0.7-0.2 1.5-0.2 2.6v9c0 1.1-0.2 2.1-0.7 3 -0.5 0.9-1.1 1.6-1.9 2.1 -0.7 0.5-1.6 0.9-2.4 1.1 -0.8 0.3-1.6 0.4-2.4 0.4 -1.2 0-2.4-0.2-3.3-0.5 -1-0.3-1.8-0.8-2.5-1.3 -0.6-0.6-1.1-1.2-1.4-1.9 -0.4-0.7-0.5-1.5-0.5-2.2v-12.2c0-0.4-0.1-0.7-0.2-0.9 -0.1-0.2-0.3-0.5-0.7-0.6 -0.2-0.2-0.5-0.3-0.9-0.4 -0.4-0.1-0.7-0.1-0.9-0.1v-1.1h8.6v1.1c-0.3 0-0.6 0-1 0.1 -0.4 0.1-0.7 0.2-0.9 0.2 -0.4 0.1-0.6 0.3-0.7 0.6 -0.1 0.3-0.2 0.6-0.2 1v11.4c0 0.5 0.1 1.1 0.2 1.7 0.1 0.6 0.4 1.2 0.7 1.7 0.4 0.5 0.9 1 1.6 1.3 0.7 0.3 1.5 0.6 2.7 0.6 1.1 0 2-0.2 2.7-0.6 0.7-0.3 1.3-0.7 1.7-1.3 0.4-0.5 0.7-1.1 0.9-1.7 0.1-0.6 0.2-1.1 0.2-1.7v-8.5c0-1.1-0.1-2-0.2-2.7 -0.2-0.7-0.4-1.1-0.7-1.4 -0.4-0.2-0.9-0.4-1.4-0.6 -0.6-0.1-1.1-0.2-1.4-0.2v-1.1h8.5V287.6zM168.4 277c-0.2 0.2-0.6 0.4-1 0.7 -0.5 0.4-0.8 0.7-1 0.9 -0.2 0.3-0.2 0.9-0.1 1.5 0.1 0.7 0.4 1.5 0.8 2.5l6.1 13.9 -1.2 0.6 -18.3-10.6 4.3 9.8c0.5 1.1 0.9 1.9 1.3 2.4 0.4 0.6 0.8 0.9 1.2 1 0.3 0.1 0.8 0.1 1.5 0 0.7-0.1 1.2-0.2 1.4-0.3l0.4 1 -7.8 3.4 -0.4-1c0.3-0.1 0.6-0.4 1.1-0.8 0.5-0.4 0.8-0.7 0.9-0.8 0.2-0.4 0.2-0.9 0.1-1.5 -0.1-0.6-0.4-1.4-1-2.7l-4.1-9.4c-0.2-0.4-0.4-0.8-0.7-1.1 -0.3-0.3-0.6-0.6-1-0.7 -0.4-0.1-1-0.2-1.6-0.2 -0.7 0.1-1.2 0.1-1.5 0.3l-0.4-1 5.4-2.4 17 9.8 -3.9-9.1c-0.5-1.1-0.9-1.9-1.3-2.5 -0.4-0.6-0.8-0.9-1.1-0.9 -0.3-0.1-0.8-0.1-1.4 0 -0.6 0.1-1.1 0.2-1.4 0.3l-0.4-1 7.7-3.3L168.4 277zM189.2 289.1l-8.4 4.1 -0.5-0.9c0.2-0.1 0.6-0.3 1-0.6 0.4-0.3 0.7-0.5 0.8-0.6 0.2-0.3 0.4-0.6 0.4-0.8 0-0.3 0-0.6-0.2-0.9l-6.7-13.5c-0.1-0.3-0.3-0.6-0.5-0.7 -0.2-0.1-0.5-0.2-1-0.2 -0.3 0-0.7 0.1-1.1 0.2 -0.5 0.1-0.8 0.2-1.1 0.3l-0.5-0.9 8.4-4.1 0.5 0.9c-0.3 0.1-0.6 0.3-0.9 0.6 -0.3 0.2-0.7 0.5-0.9 0.7 -0.3 0.2-0.4 0.6-0.4 0.9 0 0.2 0.1 0.5 0.2 0.8l6.6 13.5c0.1 0.3 0.3 0.5 0.6 0.7 0.2 0.2 0.5 0.2 0.9 0.2 0.2 0 0.6-0.1 1-0.2 0.4-0.1 0.8-0.2 1.1-0.3L189.2 289.1zM199.4 256.4c-0.2 0.2-0.4 0.5-0.6 0.7 -0.2 0.3-0.3 0.6-0.4 0.9 -0.1 0.4-0.2 0.7-0.1 1.1 0.1 0.3 0.1 0.8 0.2 1.2 0.5 1.7 1.2 4.2 2.2 7.5 1.1 3.4 2.1 6.9 3.2 10.6l-0.9 0.7c-3.5-2-6.8-4-10-6 -3.2-1.9-5.4-3.2-6.5-3.9 -0.3-0.1-0.6-0.3-0.9-0.3 -0.3 0-0.6 0-1 0 -0.3 0.1-0.6 0.1-0.9 0.3 -0.3 0.1-0.6 0.3-0.8 0.4l-0.7-0.8 6.7-5.3 0.7 0.8c-0.6 0.5-1 1-1.3 1.3 -0.3 0.4-0.4 0.7-0.2 0.9 0.1 0.1 0.2 0.2 0.3 0.3 0.1 0.1 0.2 0.2 0.3 0.2 0.9 0.5 2.3 1.3 4.3 2.5 2 1.3 4.8 2.9 8.5 5.1 -0.6-1.9-1.2-4.1-2-6.6 -0.8-2.5-1.4-4.2-1.7-5.2 -0.3-0.9-0.5-1.5-0.7-1.8 -0.2-0.3-0.3-0.6-0.5-0.7 -0.1-0.2-0.4-0.3-0.6-0.2 -0.3 0-0.5 0.1-0.9 0.2 -0.3 0.1-0.6 0.3-1 0.5 -0.3 0.2-0.5 0.3-0.8 0.5l-0.7-0.8 6.1-4.8L199.4 256.4zM222.6 249.7l4.4 4.2 -11.1 13.3 -0.8-0.6c0.2-0.2 0.4-0.6 0.7-1 0.2-0.4 0.4-0.7 0.4-0.9 0.1-0.3 0.1-0.6 0-0.8 -0.1-0.3-0.3-0.5-0.6-0.7l-11.5-9.6c-0.2-0.2-0.5-0.3-0.8-0.4 -0.2-0.1-0.5-0.1-0.9 0.1 -0.3 0.1-0.5 0.3-0.9 0.6 -0.4 0.3-0.6 0.5-0.9 0.7l-0.8-0.6 10.3-12.4 3.8 3.2 -0.7 0.8c-0.7-0.3-1.6-0.5-2.6-0.5 -1.1 0-1.8 0.2-2.3 0.5 -0.2 0.2-0.5 0.5-0.8 0.7 -0.3 0.3-0.6 0.7-1 1.1l-2 2.5 6.3 5.3 1.5-1.8c0.5-0.6 0.8-1 0.9-1.4 0.1-0.4 0.1-0.8 0-1.1 -0.1-0.4-0.2-0.7-0.5-1.2 -0.3-0.4-0.5-0.8-0.8-1.1l0.7-0.8 6.2 5.2 -0.7 0.8c-0.4-0.2-0.8-0.5-1.4-0.7 -0.5-0.2-0.9-0.3-1.2-0.3 -0.5 0-0.9 0.1-1.2 0.3 -0.4 0.2-0.7 0.6-1.1 1.1l-1.5 1.8 4.8 4c0.5 0.4 0.9 0.7 1.2 0.9 0.3 0.2 0.7 0.2 1 0.2 0.3-0.1 0.6-0.3 1-0.6 0.3-0.3 0.7-0.8 1.2-1.4 0.2-0.2 0.5-0.5 0.8-1 0.4-0.3 0.6-0.7 0.8-1 0.2-0.3 0.4-0.7 0.6-1.1 0.2-0.3 0.2-0.6 0.2-0.9 0-0.7-0.3-1.5-0.7-2.5 -0.4-1-0.7-1.6-1-2L222.6 249.7zM239.9 230.3l-2.7 4.8c-2.3 0.2-4.3 0.4-6 0.6 -1.7 0.2-3.5 0.4-5.4 0.7l-1 1.9 5.8 3.1c0.3 0.2 0.6 0.3 0.9 0.3 0.3 0 0.6-0.1 0.9-0.3 0.2-0.1 0.3-0.4 0.6-0.7 0.3-0.3 0.5-0.7 0.6-1l0.9 0.5 -4.2 7.7 -0.9-0.5c0.1-0.2 0.2-0.5 0.4-1 0.2-0.4 0.2-0.7 0.3-0.8 0-0.3 0-0.6-0.2-0.8 -0.2-0.2-0.4-0.4-0.7-0.6l-13.2-7.2c-0.3-0.1-0.6-0.2-0.9-0.3 -0.3-0.1-0.6 0.1-0.9 0.3 -0.2 0.2-0.4 0.5-0.7 0.8 -0.3 0.3-0.5 0.6-0.6 0.8l-0.9-0.5 4.6-8.5c0.4-0.8 0.9-1.5 1.4-2 0.5-0.6 1.1-1.1 1.8-1.5 0.6-0.3 1.3-0.5 2.1-0.5 0.7 0 1.5 0.2 2.2 0.6 0.7 0.4 1.3 0.9 1.7 1.4 0.4 0.5 0.7 1 0.9 1.7 0.2 0.6 0.2 1.2 0.2 1.9 -0.1 0.6-0.2 1.4-0.3 2.1 1.7-0.2 3.1-0.5 4.3-0.6 1.1-0.2 2.5-0.4 4.2-0.6 0.7-0.1 1.3-0.2 1.7-0.4 0.5-0.2 0.8-0.4 1.1-0.6 0.3-0.2 0.5-0.4 0.7-0.7 0.2-0.3 0.4-0.6 0.5-0.7L239.9 230.3zM222.6 229.7c-1.1-0.6-2.2-0.8-3.2-0.5 -1 0.3-1.8 1-2.4 2.2l-1.2 2.2 7.9 4.2 0.9-1.7c0.6-1.2 0.8-2.4 0.5-3.6C224.7 231.3 223.9 230.4 222.6 229.7zM234.5 212.5c0.6-0.3 1.2-0.5 1.8-0.5 0.6-0.1 1.3 0 2 0.2 1.8 0.4 3.1 1.5 3.9 3.1 0.8 1.6 1 3.4 0.4 5.3 -0.2 0.8-0.6 1.8-1.1 2.6 -0.5 0.9-1.1 1.5-1.6 2l0.9 0.9 -0.3 1.2 -6.9-1.6 0.3-1.1c0.9 0 1.7-0.1 2.5-0.3 0.8-0.1 1.5-0.3 2.2-0.7 0.7-0.4 1.3-0.9 1.8-1.4 0.5-0.6 0.9-1.3 1.1-2.2 0.2-0.6 0.2-1.3 0.2-1.8 0-0.6-0.2-1-0.4-1.4 -0.2-0.4-0.6-0.7-0.9-1 -0.4-0.2-0.9-0.4-1.4-0.6 -0.8-0.2-1.6-0.2-2.4 0.1 -0.8 0.3-1.5 0.9-2.1 1.7 -0.4 0.6-0.9 1.2-1.4 1.9 -0.5 0.7-1 1.3-1.4 1.9 -0.8 1-1.7 1.6-2.7 2.1 -1 0.4-2.2 0.5-3.5 0.1 -0.8-0.2-1.4-0.6-2-1.1 -0.6-0.5-1-1-1.4-1.8 -0.4-0.7-0.6-1.4-0.7-2.2 -0.1-0.9 0-1.7 0.2-2.5 0.3-0.9 0.6-1.7 1.1-2.4 0.5-0.7 1-1.3 1.5-1.7l-0.9-0.9 0.3-1.2 6.7 1.6 -0.3 1.2c-0.8 0-1.6 0-2.4 0.1 -0.8 0.1-1.5 0.2-2.2 0.5 -0.7 0.3-1.2 0.7-1.7 1.2 -0.5 0.5-0.8 1.1-1.1 2 -0.2 0.9-0.1 1.8 0.3 2.5 0.4 0.8 1.1 1.3 1.9 1.5 0.9 0.2 1.6 0.2 2.3-0.1 0.7-0.2 1.3-0.7 1.9-1.4 0.5-0.6 1-1.2 1.4-1.8 0.4-0.6 0.9-1.2 1.3-1.7 0.4-0.5 0.8-1 1.2-1.4C233.5 213.2 234 212.8 234.5 212.5zM246.9 198.8l-1.3 9.3 -1-0.1c0-0.3 0.1-0.7 0.1-1.2 0.1-0.5 0-0.8 0-1.1 -0.1-0.3-0.2-0.6-0.4-0.7 -0.2-0.2-0.5-0.3-0.9-0.3l-14.9-2c-0.3 0-0.6 0-0.8 0 -0.2 0.1-0.5 0.3-0.7 0.7 -0.1 0.3-0.3 0.6-0.5 1 -0.2 0.4-0.3 0.8-0.4 1.1l-1-0.1 1.3-9.3 1 0.1c0 0.3 0 0.6 0 1.1 0 0.5 0 0.8 0.1 1.1 0.1 0.3 0.2 0.6 0.5 0.8 0.2 0.2 0.5 0.3 0.8 0.3l14.9 2.1c0.3 0.1 0.6 0 0.9-0.1 0.3-0.1 0.5-0.3 0.7-0.7 0.1-0.2 0.3-0.5 0.4-0.9 0.2-0.5 0.3-0.9 0.3-1.2L246.9 198.8zM233.7 174.1l-0.1 1c-0.4 0.1-0.8 0.2-1.3 0.5 -0.5 0.2-1 0.5-1.4 0.7 -0.4 0.3-0.8 0.6-1.2 1 -0.4 0.3-0.6 0.6-0.6 1 -0.1 0.3-0.1 0.7-0.2 1.1 0 0.5-0.1 0.9-0.1 1.3l-0.1 0.9 16.6 0.6c0.3 0 0.6 0 0.9-0.2 0.3-0.1 0.5-0.4 0.6-0.7 0.1-0.2 0.2-0.5 0.4-1.1 0.1-0.6 0.2-1 0.2-1.3l1 0 -0.4 9.8 -1-0.1c0-0.2-0.1-0.7-0.1-1.3 0-0.6-0.1-0.9-0.2-1.2 -0.1-0.3-0.3-0.6-0.5-0.7 -0.2-0.2-0.6-0.2-1-0.3l-16.7-0.6 0 0.9c0 0.3 0 0.6 0 1.1 0 0.4 0 0.9 0 1.3 0 0.3 0.2 0.7 0.5 1.1 0.3 0.3 0.7 0.7 1.1 1 0.4 0.3 0.9 0.6 1.4 0.9 0.5 0.2 0.9 0.4 1.2 0.5l-0.1 1 -5.6-0.2 0.7-18.1L233.7 174.1zM229.4 151.4c0 0.1 0.1 0.4 0.2 0.8 0.2 0.3 0.3 0.6 0.4 0.8 0.2 0.4 0.4 0.6 0.5 0.8 0.1 0.1 0.5 0.4 1 0.8 1.1 0.8 2.2 1.5 3.2 2.2 1.1 0.6 2.5 1.4 4.1 2.4 0.6 0.4 1.1 0.7 1.5 0.7 0.4 0.2 0.9 0.2 1.6 0.2l4 0.1c0.4 0 0.7-0.1 1-0.2 0.2-0.1 0.4-0.4 0.6-0.7 0.1-0.2 0.2-0.6 0.3-1.1 0.1-0.5 0.2-0.9 0.2-1.2h1.1l-0.2 9.7 -1-0.1c0-0.3-0.1-0.6-0.1-1.2 0-0.5-0.1-0.9-0.2-1.1 -0.1-0.4-0.3-0.6-0.6-0.7 -0.3-0.2-0.6-0.2-1-0.2l-5.1-0.1c-0.2-0.1-0.4 0.1-0.9 0.2 -0.4 0.2-0.9 0.4-1.4 0.6 -1.2 0.6-2.4 1.2-3.7 1.9 -1.3 0.7-2.5 1.3-3.4 1.8 -0.6 0.3-1 0.5-1.3 0.9 -0.3 0.2-0.5 0.5-0.8 0.8 -0.1 0.2-0.3 0.5-0.3 0.9 -0.1 0.3-0.2 0.6-0.2 0.9h-1l0.1-8.9h1.1c0 1 0 1.7 0.2 2.2 0.1 0.4 0.3 0.6 0.5 0.6 0.1 0 0.2 0 0.3-0.1 0.2-0.1 0.4-0.2 0.6-0.2 0.3-0.1 0.6-0.3 0.9-0.5 0.3-0.2 0.7-0.3 1-0.5 0.9-0.4 1.8-0.9 2.6-1.4 0.9-0.4 2-1.1 3.4-1.8 -2.4-1.5-4.3-2.8-5.7-3.6 -1.3-0.8-2.2-1.2-2.4-1.2 -0.2 0-0.4 0.1-0.6 0.2 -0.1 0.1-0.2 0.3-0.3 0.6 -0.1 0.3-0.2 0.6-0.2 0.9 0 0.3 0 0.7-0.1 0.9h-1.1l0.2-7.2H229.4z"/><path fill="#6A005F" d="M126.2 237.3c-0.8 0-1.4 0.3-2 1 -0.6 0.6-0.9 1.4-0.9 2.4 0 0.9 0.3 1.6 0.8 2.2 0.5 0.6 1.2 0.8 2 0.8 0.8 0 1.4-0.3 2-0.8 0.5-0.6 0.8-1.4 0.8-2.3 0-1-0.2-1.8-0.8-2.3C127.6 237.6 127 237.3 126.2 237.3zM139.4 237.3c-0.7 0-1.4 0.3-1.9 1 -0.6 0.8-0.9 2.4-0.9 4.8 0 2.3 0.3 3.8 0.8 4.6 0.6 0.8 1.2 1.2 2 1.2 0.8 0 1.4-0.4 2-1.2 0.5-0.8 0.8-2.3 0.8-4.6 0-2.3-0.3-3.9-0.8-4.6C140.8 237.7 140.2 237.3 139.4 237.3zM217.2 100.4c-55.3 0-110.7 0-166 0 -0.2 0-0.2 0.3-0.3 0.5 -0.2 21.3 0.1 43.3 0 64.1 -0.2 21 2.9 40.1 9.7 55 6.7 14.8 17.7 25.5 30.2 34.4 12.7 9 28.6 13.9 43.3 21.4 14.6-7.6 30.5-12.4 43.1-21.6 12.5-9 23.8-19.4 30.4-34.4 6.6-15 9.6-33.5 9.6-55.2C217.3 143.7 217.5 121.5 217.2 100.4zM89.3 194.6c11.3-5.9 22.6-12.3 31.4-20.8 -5.9 1.4-10.5 1.6-15.4 1.5 0.8-1.3 2.1-2.1 3.2-3.1 7.4-7 15.8-13.6 19.8-24.2 -2.7 0.9-6.2 1.7-9.9 1.7 7.3-9.3 13-20.2 16-33.7 0.1 0 0.3 0 0.4 0 3 13.5 8.8 24.3 16 33.7 -3.2-0.2-6-0.3-9.7-1.8 0.2 1.6 1 3.1 1.7 4.4 3.6 6.6 9.4 11.8 14.7 16.9 2.2 2 4.5 3.8 6.4 6.1 -6 0.5-8.7 0.1-15.2-1.7 2.1 2.5 4.9 4.4 7.5 6.4 7 5.7 15.4 10 23.9 14.5 0.7 0.3 1.7 0.6 2 1.5 -7 1-14.8 0.5-22.4-2 -9.3-3.2-18-3.4-24.5 2.7 -7.2-5.8-14.4-5.9-26-2.8 -6.6 2.1-15.2 3-22.2 2.1C87.4 195.1 88.5 195 89.3 194.6zM114.9 250h-1.7v-11c-0.4 0.5-1 0.8-1.7 1.1 -0.6 0.5-1.2 0.7-1.8 1v-1.6c1-0.5 1.8-1.1 2.5-1.7 0.7-0.7 1.2-1.3 1.5-1.9h1.1V250zM130.3 247c-0.4 1.1-1 1.9-1.8 2.4 -0.8 0.6-1.7 0.9-2.7 0.9 -1.1 0-2-0.3-2.7-0.9 -0.7-0.6-1.1-1.4-1.3-2.6l1.6-0.2c0.2 0.8 0.5 1.4 0.9 1.7 0.4 0.4 0.9 0.5 1.5 0.5 0.5 0 1-0.1 1.4-0.4 0.4-0.2 0.7-0.6 1-1 0.3-0.4 0.5-1 0.6-1.6 0.2-0.7 0.3-1.4 0.3-2.1 0-0.1 0-0.2 0-0.4 -0.3 0.6-0.8 1.1-1.4 1.4 -0.6 0.3-1.3 0.5-1.9 0.5 -1.2 0-2.2-0.5-3-1.3 -0.8-0.9-1.3-2-1.3-3.3 0-1.4 0.4-2.6 1.3-3.4 0.9-0.9 1.9-1.3 3.1-1.3 1 0 1.8 0.2 2.6 0.7 0.7 0.5 1.3 1.2 1.8 2.2 0.3 0.9 0.6 2.2 0.6 3.9C130.9 244.5 130.6 245.9 130.3 247zM143.5 247.1c-0.3 1-0.8 1.8-1.5 2.3 -0.7 0.6-1.5 0.9-2.6 0.9 -1.4 0-2.4-0.5-3.2-1.5 -0.9-1.1-1.4-3.1-1.4-5.7 0-1.7 0.2-3 0.5-4 0.4-1 0.9-1.8 1.5-2.3 0.7-0.6 1.5-0.9 2.6-0.9 0.8 0 1.4 0.1 2 0.4 0.6 0.3 1 0.7 1.4 1.3 0.4 0.6 0.6 1.3 0.9 2.1 0.2 0.8 0.3 1.9 0.3 3.3C144 244.7 143.8 246.1 143.5 247.1zM157.1 250h-9.3c0-0.4 0.1-0.9 0.2-1.2 0.2-0.6 0.6-1.3 1.2-1.9 0.5-0.6 1.3-1.3 2.2-2.2 1.5-1.3 2.5-2.2 3.1-3 0.5-0.7 0.8-1.4 0.8-2.1 0-0.7-0.3-1.3-0.8-1.7 -0.5-0.5-1.1-0.7-1.9-0.7 -0.8 0-1.5 0.3-2 0.8 -0.5 0.5-0.7 1.2-0.7 2l-1.8-0.2c0.2-1.3 0.6-2.3 1.4-3 0.8-0.7 1.9-1 3.2-1 1.4 0 2.4 0.3 3.2 1.1 0.8 0.8 1.2 1.7 1.2 2.8 0 0.5-0.1 1.1-0.3 1.7 -0.2 0.5-0.6 1.1-1.1 1.7 -0.5 0.6-1.4 1.4-2.7 2.4 -1 0.9-1.7 1.5-2 1.8 -0.3 0.3-0.5 0.6-0.7 1h6.9V250zM142.8 210.8l0.4 3.7h-16.1l0.5-3.7H77.1l6.3-7.7c5.3-0.3 15.7-1.6 24.5-4.9 17.2-6.4 27.6 2.4 27.6 2.4 8.2-6.9 18.5-5.5 28.1-1.9 9 3.3 22.7 4.3 22.7 4.3l5.9 7.9H142.8z"/></svg>